<svg width="24" height="24" viewBox="0 0 24 24" fill="none" xmlns="http://www.w3.org/2000/svg">
<path d="M14.8099 9.53461H16.2199M8.4899 6.72461H9.8999M7.78992 17.2746H16.2199C17.3899 17.2746 18.3299 16.3346 18.3299 15.1646V9.53461C18.3299 8.36461 17.3899 7.42461 16.2199 7.42461H7.78992C6.61992 7.42461 5.66992 8.36461 5.66992 9.53461V15.1646C5.66992 16.3346 6.61992 17.2746 7.78992 17.2746ZM13.4199 12.3546C13.4199 13.9046 12.1599 15.1646 10.5999 15.1646C9.03991 15.1646 7.78992 13.9046 7.78992 12.3546C7.78992 10.8046 9.04991 9.54461 10.5999 9.54461C12.1499 9.54461 13.4199 10.8046 13.4199 12.3546Z" stroke="#1F75FF" stroke-width="1.5" stroke-linejoin="round"/>
</svg>
