<svg width="24" height="24" viewBox="0 0 24 24" fill="none" xmlns="http://www.w3.org/2000/svg">
<path d="M13.875 13.6206L15.225 16.8606H8.75499L10.105 13.6206M16.525 16.8606H7.465M8.11499 13.6206H15.885C17.675 13.6206 19.125 12.1706 19.125 10.3806C19.125 8.59062 17.675 7.14062 15.885 7.14062H8.11499C6.32499 7.14062 4.875 8.59062 4.875 10.3806C4.875 12.1706 6.32499 13.6206 8.11499 13.6206ZM11.995 11.6806C11.285 11.6806 10.705 11.1006 10.705 10.3906C10.705 9.68063 11.285 9.10062 11.995 9.10062C12.705 9.10062 13.285 9.68063 13.285 10.3906C13.285 11.1006 12.705 11.6806 11.995 11.6806Z" stroke="#1F75FF" stroke-width="1.5" stroke-linejoin="round"/>
</svg>
