<svg width="46" height="82" viewBox="0 0 46 82" fill="none" xmlns="http://www.w3.org/2000/svg">
<path d="M32.64 35.91C33.35 33.96 33.7 31.41 33.7 28.24V20.17C33.7 17.14 32.79 14.57 30.98 12.45C29.16 10.33 26.94 9.27 24.32 9.27H22.1C19.48 9.27 17.26 10.33 15.44 12.45C13.62 14.57 12.72 17.14 12.72 20.17H12.82V26.32H2.43V20.17C2.43 16.54 3.3 13.18 5.05 10.08C6.8 6.99 9.19 4.53 12.21 2.72C15.23 0.91 18.53 0 22.1 0H24.32C27.88 0 31.18 0.91 34.21 2.72C37.24 4.53 39.62 6.99 41.37 10.08C43.12 13.17 43.99 16.54 43.99 20.17H44.09V28.44C44.09 32.68 43.48 36.28 42.27 39.23C41.06 42.19 39.11 45.15 36.42 48.11L14.03 72.42H45.5V81.7H0V72.42L29.05 41.55C30.73 39.73 31.93 37.85 32.63 35.9L32.64 35.91Z" fill="#2B388F"/>
<path d="M45.5098 72.4297H0.00976562V81.7097H45.5098V72.4297Z" fill="#26A9E0"/>
<path d="M0.00976562 72.4297H14.0298L5.38976 81.7097H0.00976562V72.4297Z" fill="#1B75BB"/>
</svg>
