<svg width="43" height="83" viewBox="0 0 43 83" fill="none" xmlns="http://www.w3.org/2000/svg">
<path d="M22.9 44.9796C25.52 44.9796 27.74 46.0396 29.56 48.1596C31.38 50.2796 32.28 52.8496 32.28 55.8796V62.5396C32.28 65.5696 31.37 68.1396 29.56 70.2596C27.74 72.3796 25.52 73.4396 22.9 73.4396H19.67C17.05 73.4396 14.83 72.3796 13.01 70.2596C11.19 68.1396 10.29 65.5696 10.29 62.5396V56.9896H0V62.5396C0 66.1696 0.869995 69.5396 2.62 72.6296C4.37 75.7196 6.76 78.1796 9.78 79.9896C12.8 81.7996 16.1 82.7096 19.67 82.7096H22.9C26.46 82.7096 29.76 81.7996 32.79 79.9896C35.82 78.1796 38.2 75.7196 39.95 72.6296C41.7 69.5396 42.57 66.1696 42.57 62.5396V55.9796C42.57 52.1496 41.59 48.8996 39.64 46.2496C37.69 43.5896 35.07 41.6296 31.77 40.3496C26.2 43.1896 23.01 44.9896 18.52 44.9896H22.89L22.9 44.9796Z" fill="#2B388F"/>
<path d="M13.6191 35.7002V44.9802H18.5291C23.0191 44.9802 26.2091 43.1802 31.7791 40.3402C26.2091 37.5002 23.0191 35.7002 18.5391 35.7002H13.6191Z" fill="#1B75BB"/>
<path d="M39.6495 34.44C41.5995 31.78 42.5795 28.54 42.5795 24.71V20.17C42.5795 16.54 41.6995 13.18 39.9595 10.08C38.2095 6.99 35.8195 4.53 32.7995 2.72C29.7795 0.91 26.4795 0 22.9095 0H20.6895C17.1195 0 13.8295 0.91 10.7995 2.72C7.76953 4.53 5.37953 6.99 3.63953 10.08C1.88953 13.17 1.01953 16.54 1.01953 20.17V23.7H11.3095V20.17C11.3095 17.14 12.2195 14.57 14.0295 12.45C15.8495 10.33 18.0695 9.27 20.6895 9.27H22.9095C25.5295 9.27 27.7495 10.33 29.5695 12.45C31.3895 14.57 32.2895 17.14 32.2895 20.17V24.81C32.2895 27.84 31.3795 30.41 29.5695 32.53C27.7495 34.65 25.5295 35.71 22.9095 35.71H18.5495C23.0295 35.71 26.2195 37.51 31.7895 40.35C35.0795 39.07 37.7095 37.11 39.6595 34.45L39.6495 34.44Z" fill="#26A9E0"/>
</svg>
