<svg width="42" height="83" viewBox="0 0 42 83" fill="none" xmlns="http://www.w3.org/2000/svg">
<path d="M31.2695 25.1302H41.5595V20.1802C41.5595 16.5502 40.6795 13.1902 38.9395 10.0902C37.1895 7.0002 34.7995 4.5402 31.7795 2.7302C31.6095 2.6302 31.4395 2.5402 31.2795 2.4502V25.1402L31.2695 25.1302Z" fill="#1B75BB"/>
<path d="M31.2698 25.1299V62.5399C31.2698 65.5699 30.3597 68.1399 28.5497 70.2599C26.7297 72.3799 24.5098 73.4399 21.8898 73.4399H20.6797C18.0597 73.4399 15.8397 72.3799 14.0197 70.2599C12.1997 68.1399 11.2997 65.5699 11.2997 62.5399H1.00977C1.00977 66.1699 1.87976 69.5399 3.62976 72.6299C5.37976 75.7199 7.76976 78.1799 10.7898 79.9899C13.8098 81.7999 17.1097 82.7099 20.6797 82.7099H21.8898C25.4498 82.7099 28.7498 81.7999 31.7798 79.9899C34.8098 78.1799 37.1898 75.7199 38.9398 72.6299C40.6898 69.5399 41.5598 66.1699 41.5598 62.5399V25.1299H31.2698Z" fill="#2B388F"/>
<path d="M29.8 41.76C28.82 43.44 27.53 44.77 25.92 45.74C24.31 46.72 22.62 47.2 20.88 47.2H18.66C16.17 47.2 14.15 46.16 12.61 44.07C11.06 41.99 10.29 39.4 10.29 36.3V20.16C10.29 17.13 11.2 14.56 13.01 12.44C14.83 10.32 17.05 9.26 19.67 9.26H21.89C24.51 9.26 26.73 10.32 28.55 12.44C30.37 14.56 31.27 17.13 31.27 20.16V2.44C28.38 0.82 25.26 0 21.89 0H19.67C16.1 0 12.81 0.91 9.78 2.72C6.75 4.53 4.37 6.99 2.62 10.08C0.869995 13.17 0 16.54 0 20.17V36.31C0 42.09 1.46001 46.9 4.39001 50.74C7.31001 54.57 11.37 56.49 16.55 56.49H18.77C21.86 56.49 24.45 55.75 26.54 54.27C28.62 52.79 30.21 50.74 31.28 48.12V36.32C31.28 38.27 30.79 40.09 29.82 41.77L29.8 41.76Z" fill="#26A9E0"/>
</svg>
