<svg width="43" height="84" viewBox="0 0 43 84" fill="none" xmlns="http://www.w3.org/2000/svg">
<path d="M21.51 44.5099H22.9C25.52 44.5099 27.74 45.5699 29.56 47.6899C31.38 49.8099 32.28 52.3799 32.28 55.4099V63.0499C32.28 66.0799 31.37 68.6499 29.56 70.7699C27.74 72.8899 25.52 73.9499 22.9 73.9499H19.67C17.05 73.9499 14.83 72.8899 13.01 70.7699C11.19 68.6499 10.29 66.0799 10.29 63.0499V55.4099C10.29 52.3799 11.2 49.8099 13.01 47.6899C14.83 45.5699 17.05 44.5099 19.67 44.5099H21.51C15.31 44.5099 10.79 42.9799 10.79 42.9799C9.65998 42.5399 8.61999 42.0199 7.64999 41.4199C5.77999 42.5699 4.19998 44.0199 2.91998 45.7599C0.969983 48.4199 0 51.6599 0 55.4899V63.0299C0 66.6599 0.869995 70.0299 2.62 73.1199C4.37 76.2099 6.76 78.6699 9.78 80.4799C12.8 82.2899 16.1 83.1999 19.67 83.1999H22.9C26.46 83.1999 29.76 82.2899 32.79 80.4799C35.82 78.6699 38.2 76.2099 39.95 73.1199C41.7 70.0299 42.57 66.6599 42.57 63.0299V55.4899C42.57 51.6599 41.59 48.4099 39.64 45.7599C38.36 44.0099 36.77 42.5699 34.91 41.4199C33.94 42.0199 32.9 42.5399 31.78 42.9799C31.78 42.9799 28.1 44.5099 21.52 44.5099H21.51Z" fill="#2B388F"/>
<path d="M39.64 37.08C41.59 34.42 42.57 31.18 42.57 27.35V20.17C42.57 16.54 41.69 13.17 39.95 10.08C38.2 6.99 35.81 4.53 32.79 2.72C29.77 0.91 26.47 0 22.9 0H19.67C16.1 0 12.81 0.91 9.78 2.72C6.75 4.53 4.35999 6.99 2.62 10.08C0.869995 13.17 0 16.54 0 20.17V27.35C0 31.18 0.969983 34.43 2.91998 37.08C4.19998 38.83 5.78999 40.27 7.64999 41.42C8.61999 40.82 9.65998 40.3 10.79 39.86C10.79 39.86 15.31 38.33 21.51 38.33H19.67C17.05 38.33 14.83 37.27 13.01 35.15C11.19 33.03 10.29 30.46 10.29 27.43V20.15C10.29 17.12 11.2 14.55 13.01 12.43C14.83 10.31 17.05 9.25 19.67 9.25H22.9C25.52 9.25 27.74 10.31 29.56 12.43C31.38 14.55 32.28 17.12 32.28 20.15V27.43C32.28 30.46 31.37 33.03 29.56 35.15C27.74 37.27 25.52 38.33 22.9 38.33H21.51C28.1 38.33 31.77 39.86 31.77 39.86C32.9 40.3 33.94 40.82 34.9 41.42C36.77 40.27 38.35 38.82 39.63 37.08H39.64Z" fill="#26A9E0"/>
<path d="M21.5104 38.3398C15.3104 38.3398 10.7904 39.8698 10.7904 39.8698C9.66037 40.3098 8.62039 40.8298 7.65039 41.4298C8.62039 42.0298 9.66037 42.5498 10.7904 42.9898C10.7904 42.9898 15.3104 44.5198 21.5104 44.5198C28.1004 44.5198 31.7704 42.9898 31.7704 42.9898C32.9004 42.5498 33.9404 42.0298 34.9004 41.4298C33.9304 40.8298 32.8904 40.3098 31.7704 39.8698C31.7704 39.8698 28.0904 38.3398 21.5104 38.3398Z" fill="#2B388F"/>
<path d="M21.5104 38.3398C15.3104 38.3398 10.7904 39.8698 10.7904 39.8698C9.66037 40.3098 8.62039 40.8298 7.65039 41.4298C8.62039 42.0298 9.66037 42.5498 10.7904 42.9898C10.7904 42.9898 15.3104 44.5198 21.5104 44.5198C28.1004 44.5198 31.7704 42.9898 31.7704 42.9898C32.9004 42.5498 33.9404 42.0298 34.9004 41.4298C33.9304 40.8298 32.8904 40.3098 31.7704 39.8698C31.7704 39.8698 28.0904 38.3398 21.5104 38.3398Z" fill="#1B75BB"/>
</svg>
