<svg width="42" height="83" viewBox="0 0 42 83" fill="none" xmlns="http://www.w3.org/2000/svg">
<path d="M10.29 54.46H0V62.53C0 66.16 0.879995 69.52 2.62 72.62C4.37 75.71 6.76 78.17 9.78 79.98C9.95 80.08 10.12 80.17 10.28 80.26V54.46H10.29Z" fill="#1B75BB"/>
<path d="M10.29 54.46V20.17C10.29 17.14 11.2 14.57 13.01 12.45C14.83 10.33 17.05 9.27 19.67 9.27H20.88C23.5 9.27 25.72 10.33 27.54 12.45C29.36 14.57 30.26 17.14 30.26 20.17H40.55C40.55 16.54 39.68 13.17 37.93 10.08C36.18 6.99 33.79 4.53 30.77 2.72C27.75 0.91 24.45 0 20.88 0H19.67C16.11 0 12.81 0.91 9.78 2.72C6.75 4.53 4.37 6.99 2.62 10.08C0.869995 13.17 0 16.54 0 20.17V54.47H10.29V54.46Z" fill="#2B388F"/>
<path d="M11.7495 40.9505C12.7295 39.2705 14.0195 37.9405 15.6295 36.9705C17.2395 35.9905 18.9296 35.5105 20.6696 35.5105H22.8896C25.3796 35.5105 27.3995 36.5505 28.9395 38.6405C30.4895 40.7205 31.2596 43.3105 31.2596 46.4105V62.5505C31.2596 65.5805 30.3496 68.1505 28.5396 70.2705C26.7196 72.3905 24.4995 73.4505 21.8795 73.4505H19.6595C17.0395 73.4505 14.8195 72.3905 12.9995 70.2705C11.1795 68.1505 10.2795 65.5805 10.2795 62.5505V80.2805C13.1695 81.9005 16.2895 82.7205 19.6595 82.7205H21.8795C25.4495 82.7205 28.7395 81.8105 31.7695 80.0005C34.7995 78.1905 37.1795 75.7305 38.9295 72.6405C40.6795 69.5505 41.5496 66.1805 41.5496 62.5505V46.4105C41.5496 40.6305 40.0895 35.8205 37.1595 31.9805C34.2395 28.1505 30.1795 26.2305 24.9995 26.2305H22.7795C19.6895 26.2305 17.0996 26.9705 15.0096 28.4505C12.9296 29.9305 11.3395 31.9805 10.2695 34.6005V46.4005C10.2695 44.4505 10.7596 42.6305 11.7296 40.9505H11.7495Z" fill="#26A9E0"/>
</svg>
