<svg width="42" height="82" viewBox="0 0 42 82" fill="none" xmlns="http://www.w3.org/2000/svg">
<path d="M14.7107 0H4.55069L3.7207 9.28H14.0307L14.7107 0Z" fill="#1B75BB"/>
<path d="M39.5493 9.28V0H14.7093L14.0293 9.28H39.5493Z" fill="#26A9E0"/>
<path d="M37.18 30.9703C34.25 27.1403 30.2 25.2203 25.02 25.2203H23.31C18.27 25.2203 14.53 27.2003 12.11 31.1703L14.03 9.28027H3.72L0.509979 45.3903H10.8L11 43.4703C11.47 40.9103 12.7 38.7803 14.68 37.0603C16.66 35.3503 18.83 34.4903 21.19 34.4903H22.9C25.39 34.4903 27.4 35.5303 28.95 37.6203C30.5 39.7103 31.27 42.3003 31.27 45.3903V61.5303C31.27 64.5603 30.36 67.1303 28.55 69.2503C26.73 71.3703 24.51 72.4303 21.89 72.4303H19.67C17.05 72.4303 14.83 71.3703 13.01 69.2503C11.19 67.1303 10.29 64.5603 10.29 61.5303V58.5003H0V61.5303C0 65.1603 0.869995 68.5303 2.62 71.6203C4.37 74.7103 6.76 77.1703 9.78 78.9803C12.8 80.7903 16.1 81.7003 19.67 81.7003H21.89C25.45 81.7003 28.75 80.7903 31.78 78.9803C34.81 77.1703 37.19 74.7103 38.94 71.6203C40.69 68.5303 41.56 65.1603 41.56 61.5303V45.3903C41.56 39.6103 40.1 34.8003 37.17 30.9603L37.18 30.9703Z" fill="#2B388F"/>
</svg>
