<svg width="42" height="83" viewBox="0 0 42 83" fill="none" xmlns="http://www.w3.org/2000/svg">
<path d="M10.29 20.18C10.29 17.15 11.2 14.58 13.01 12.46C14.83 10.34 17.05 9.28 19.67 9.28H21.89C24.51 9.28 26.73 10.34 28.55 12.46C30.37 14.58 31.27 17.15 31.27 20.18V32.59H41.56V20.18C41.56 16.55 40.69 13.19 38.94 10.09C37.19 7 34.8 4.54 31.78 2.73C28.76 0.92 25.45 0 21.89 0H19.67C16.1 0 12.81 0.91 9.78 2.72C6.75 4.53 4.37 6.99 2.62 10.08C0.87 13.17 0 16.54 0 20.17V41.86H10.29V20.17V20.18Z" fill="#26A9E0"/>
<path d="M31.27 41.8604V62.5404C31.27 65.5704 30.36 68.1404 28.55 70.2604C26.73 72.3804 24.51 73.4404 21.89 73.4404H19.67C17.05 73.4404 14.83 72.3804 13.01 70.2604C11.19 68.1404 10.29 65.5704 10.29 62.5404V51.1404H0V62.5404C0 66.1704 0.87 69.5403 2.62 72.6303C4.37 75.7203 6.76 78.1803 9.78 79.9903C12.8 81.8004 16.1 82.7104 19.67 82.7104H21.89C25.45 82.7104 28.75 81.8004 31.78 79.9903C34.81 78.1803 37.19 75.7203 38.94 72.6303C40.69 69.5403 41.56 66.1704 41.56 62.5404V41.8604H31.27Z" fill="#2B388F"/>
<path d="M41.5595 32.5801H31.2695V41.8601H41.5595V32.5801Z" fill="#1B75BB"/>
<path d="M10.29 41.8604H0V51.1404H10.29V41.8604Z" fill="#1B75BB"/>
</svg>
