<svg width="40" height="40" viewBox="0 0 40 40" fill="none" xmlns="http://www.w3.org/2000/svg">
<path d="M27.252 27.1211V13.1543L17.6218 18.7147C16.5254 19.3472 16.5254 20.9282 17.6218 21.5606L27.252 27.1211Z" fill="#1F75FF"/>
<path d="M26.4306 7.81152H4.79255C4.34082 7.81152 3.97122 8.18112 3.97122 8.63286V31.3674C3.97122 31.8232 4.34082 32.1887 4.79255 32.1887H26.4306C26.8865 32.1887 27.252 31.8232 27.252 31.3674V27.1211L17.6218 21.5607C16.5254 20.9282 16.5254 19.3472 17.6218 18.7147L27.252 13.1543V8.63286C27.252 8.18112 26.8865 7.81152 26.4306 7.81152Z" fill="#2B388F"/>
<path d="M27.2512 13.1542V27.1209L33.5672 30.7677C34.6596 31.4001 36.0312 30.6075 36.0312 29.3427V10.9325C36.0312 9.6676 34.6596 8.87501 33.5672 9.50744L27.2512 13.1542Z" fill="#00BBFF"/>
<path d="M8.61851 14.7678C7.21912 14.7678 6.08468 13.6334 6.08468 12.234C6.08468 10.8346 7.21912 9.7002 8.61851 9.7002C10.0179 9.7002 11.1523 10.8346 11.1523 12.234C11.1523 13.6334 10.0179 14.7678 8.61851 14.7678Z" fill="#00BBFF"/>
</svg>
