<svg width="1920" height="408" viewBox="0 0 1920 408" fill="none" xmlns="http://www.w3.org/2000/svg">
<path d="M1372.95 325.41L1322.4 337.335L1237.05 357.48L1225.21 360.27L1213.29 309.735L1310.47 286.785L1242.79 0H1238.83L1145.31 22.08L1140.1 0H-0.5V408H1496.97L1471.95 302.04L1372.95 325.41Z" fill="#1E75FF"/>
<path d="M1472.08 302.008L1471.95 302.038L1496.97 407.998H1497.09L1485.04 356.953L1472.08 302.008Z" fill="#1E75FF"/>
<path d="M1920.43 0H1400.67L1460.02 251.49L1460.14 251.46L1465.09 272.43C1459 246.615 1458.94 221.715 1464.93 197.745C1470.91 173.79 1482.28 153.12 1499.01 135.795C1515.75 118.455 1536.31 106.92 1560.73 101.145L1576.23 97.4849C1600.63 91.7249 1624.21 92.8499 1646.92 100.875C1669.65 108.9 1689.03 122.295 1705.11 141.045C1721.19 159.81 1732.27 182.1 1738.36 207.915L1745.34 237.495L1758.31 292.44L1703.38 305.4L1539.97 343.965L1555.08 407.985H1723.53C1723.81 397.74 1722.63 387.015 1719.99 375.84L1774.92 362.88C1778.55 378.255 1780.02 393.285 1779.36 408H1920.4V0H1920.43ZM1822.02 154.305C1786.84 154.305 1758.33 125.79 1758.33 90.6149C1758.33 55.4399 1786.84 26.925 1822.02 26.925C1857.19 26.925 1885.71 55.4399 1885.71 90.6149C1885.71 125.79 1857.19 154.305 1822.02 154.305Z" fill="#2B388F"/>
<path d="M1683.43 220.886C1677.34 195.071 1665.39 174.956 1647.63 160.556C1629.85 146.156 1609.93 141.566 1587.87 146.786L1572.37 150.446C1550.29 155.651 1534.53 168.671 1525.08 189.491C1515.61 210.311 1513.93 233.651 1520.02 259.466L1527 289.046L1690.41 250.481L1683.43 220.901V220.886Z" fill="#2B388F"/>
<path d="M1460.02 251.49L1400.67 0H1296.15L1361.02 274.86L1460.02 251.49Z" fill="#1E75FF"/>
<path d="M1539.97 343.98L1485.04 356.955L1497.09 408H1555.09L1539.97 343.98Z" fill="#30C9E2"/>
<path d="M1527.01 289.034L1520.04 259.454C1513.95 233.639 1515.63 210.314 1525.09 189.479C1534.54 168.659 1550.31 155.639 1572.39 150.434L1587.88 146.774C1609.95 141.569 1629.87 146.159 1647.64 160.544C1665.4 174.944 1677.36 195.059 1683.45 220.874L1690.42 250.454L1745.35 237.494L1738.38 207.914C1732.29 182.099 1721.19 159.809 1705.12 141.044C1689.04 122.294 1669.66 108.899 1646.94 100.874C1624.23 92.8491 1600.65 91.7241 1576.24 97.4841L1560.75 101.144C1536.33 106.904 1515.76 118.454 1499.02 135.794C1482.3 153.134 1470.93 173.789 1464.94 197.744C1458.94 221.714 1459 246.614 1465.11 272.429L1472.08 302.009L1527.01 289.049V289.034Z" fill="#30C9E2"/>
<path d="M1774.95 362.882L1720.02 375.842C1722.66 387.032 1723.83 397.742 1723.56 407.987H1779.4C1780.06 393.272 1778.59 378.242 1774.96 362.867L1774.95 362.882Z" fill="#30C9E2"/>
<path d="M1527.01 289.026L1472.08 301.992L1485.05 356.928L1539.98 343.962L1527.01 289.026Z" fill="#0A5EC9"/>
<path d="M1745.37 237.507L1690.43 250.473L1703.4 305.408L1758.33 292.442L1745.37 237.507Z" fill="#0A5EC9"/>
<path d="M1690.42 250.46L1527.01 289.027L1539.98 343.963L1703.38 305.396L1690.42 250.46Z" fill="#1E75FF"/>
<path d="M1843.09 150.703C1876.29 139.06 1893.76 102.714 1882.11 69.5217C1870.47 36.3296 1834.12 18.8608 1800.93 30.504C1767.74 42.1472 1750.27 78.4934 1761.91 111.686C1773.56 144.878 1809.9 162.346 1843.09 150.703Z" fill="#1E75FF"/>
<path d="M1238.83 0H1140.1L1145.31 22.08L1238.83 0Z" fill="#30C9E2"/>
<path d="M1310.47 286.781L1213.29 309.731L1225.21 360.266L1237.05 357.476L1322.4 337.331L1310.47 286.781Z" fill="#2B388F"/>
<path d="M1472.08 302.011L1465.09 272.431L1460.14 251.461L1460.02 251.491L1471.95 302.041L1472.08 302.011Z" fill="#1E75FF"/>
<path d="M1237.05 357.481L1322.4 337.336L1237.05 357.481Z" fill="#1E75FF"/>
<path d="M1460.04 251.499L1361.03 274.867L1372.96 325.408L1471.97 302.04L1460.04 251.499Z" fill="#2B388F"/>
<path d="M1471.95 302.038L1472.08 302.008L1471.95 302.038Z" fill="#1E75FF"/>
<path d="M1472.08 302.01L1465.09 272.43L1472.08 302.01Z" fill="#1E75FF"/>
<path d="M1361.02 274.868L1310.48 286.797L1322.41 337.338L1372.95 325.409L1361.02 274.868Z" fill="#30C9E2"/>
<path d="M1310.47 286.785L1361.02 274.86L1296.15 0H1242.79L1310.47 286.785Z" fill="#0A5EC9"/>
</svg>
