<svg width="639" height="593" viewBox="0 0 639 593" fill="none" xmlns="http://www.w3.org/2000/svg">
<path d="M638.803 576.477V180.457C638.803 170.652 630.213 163.115 620.489 164.331L432.973 188.885V359.708C432.973 367.892 426.976 374.78 418.872 375.834L205.83 403.791V523.966C205.83 532.151 211.827 538.958 219.93 540.012L620.489 592.523C630.213 593.819 638.803 586.283 638.803 576.477Z" fill="#00BBFF"/>
<path d="M432.973 188.876V68.7004C432.973 60.5969 426.976 53.7089 418.872 52.6554L18.314 0.144409C8.58976 -1.15216 0 6.38416 0 16.1895V412.21C0 422.015 8.58976 429.551 18.314 428.336L205.83 403.782V232.959C205.83 224.775 211.827 217.887 219.93 216.833L432.973 188.876Z" fill="#2B388F"/>
<path d="M432.973 359.71V188.887L219.93 216.844C211.827 217.898 205.83 224.786 205.83 232.97V403.793L418.872 375.836C426.976 374.782 432.973 367.894 432.973 359.71Z" fill="#1F75FF"/>
</svg>
