<svg width="1920" height="88" viewBox="0 0 1920 88" fill="none" xmlns="http://www.w3.org/2000/svg">
<path d="M1372.95 5.40964L1322.4 17.3346L1237.05 37.4796L1225.21 40.2696L1213.29 -10.2654L1310.47 -33.2153L1242.79 -320H1238.83L1145.31 -297.92L1140.1 -320H-0.5V87.9995H1496.97L1471.95 -17.9603L1372.95 5.40964Z" fill="#E5E9EC"/>
<path d="M1472.08 -17.9922L1471.95 -17.9622L1496.97 87.9977H1497.09L1485.04 36.9528L1472.08 -17.9922Z" fill="#1E75FF"/>
<path d="M1920.43 -320H1400.67L1460.02 -68.5103L1460.14 -68.5403L1465.09 -47.5703C1459 -73.3853 1458.94 -98.2852 1464.93 -122.255C1470.91 -146.21 1482.28 -166.88 1499.01 -184.205C1515.75 -201.545 1536.31 -213.08 1560.73 -218.855L1576.23 -222.515C1600.63 -228.275 1624.21 -227.15 1646.92 -219.125C1669.65 -211.1 1689.03 -197.705 1705.11 -178.955C1721.19 -160.19 1732.27 -137.9 1738.36 -112.085L1745.34 -82.5053L1758.31 -27.5603L1703.38 -14.6003L1539.97 23.9646L1555.08 87.9845H1723.53C1723.81 77.7395 1722.63 67.0146 1719.99 55.8396L1774.92 42.8796C1778.55 58.2546 1780.02 73.2846 1779.36 87.9995H1920.4V-320H1920.43ZM1822.02 -165.695C1786.84 -165.695 1758.33 -194.21 1758.33 -229.385C1758.33 -264.56 1786.84 -293.075 1822.02 -293.075C1857.19 -293.075 1885.71 -264.56 1885.71 -229.385C1885.71 -194.21 1857.19 -165.695 1822.02 -165.695Z" fill="#D1D8DB"/>
<path d="M1539.97 23.9805L1485.04 36.9554L1497.09 88.0004H1555.09L1539.97 23.9805Z" fill="#BEC7CB"/>
<path d="M1774.95 42.8822L1720.02 55.8422C1722.66 67.0322 1723.83 77.7421 1723.56 87.9871H1779.4C1780.06 73.2721 1778.59 58.2422 1774.96 42.8672L1774.95 42.8822Z" fill="#BEC7CB"/>
<path d="M1527.01 -30.9738L1472.08 -18.0078L1485.05 36.9277L1539.98 23.9618L1527.01 -30.9738Z" fill="#ABB6BA"/>
<path d="M1690.42 -69.5398L1527.01 -30.9727L1539.98 23.9629L1703.38 -14.6042L1690.42 -69.5398Z" fill="#889395"/>
<path d="M1310.47 -33.2188L1213.29 -10.2688L1225.21 40.2662L1237.05 37.4762L1322.4 17.3312L1310.47 -33.2188Z" fill="#ABB6BA"/>
<path d="M1237.05 37.4809L1322.4 17.3359L1237.05 37.4809Z" fill="#1E75FF"/>
<path d="M1460.04 -68.5012L1361.03 -45.1328L1372.96 5.40847L1471.97 -17.9599L1460.04 -68.5012Z" fill="#889395"/>
<path d="M1361.02 -45.132L1310.48 -33.2031L1322.41 17.3382L1372.95 5.40933L1361.02 -45.132Z" fill="#BEC7CB"/>
</svg>
