<svg width="312" height="312" viewBox="0 0 312 312" fill="none" xmlns="http://www.w3.org/2000/svg">
<path d="M90.4367 179.033C91.1849 169.552 84.077 158.453 84.077 158.453C84.0406 158.471 36.8631 178.627 35.5218 152.75L35.499 230.102C62.7899 215.576 88.3974 204.882 90.4413 179.033H90.4367Z" fill="#0B1F5B"/>
<path d="M305.809 112.122H167.906C157.239 145.207 147.914 184.346 196.684 207.553C250.769 233.289 253.469 263.417 253.593 265.37H305.814C309.094 265.37 311.781 262.687 311.781 259.402V118.085C311.781 114.804 309.098 112.117 305.814 112.117L305.809 112.122Z" fill="#0B1F5B"/>
<path d="M60.0928 306.026C60.0928 311.218 66.2973 313.932 70.1159 310.41L118.89 265.473H60.0928V306.026Z" fill="#00BDFF"/>
<path d="M85.0801 2.6589C85.0801 2.6589 85.1212 2.64519 85.144 2.64062C85.1212 2.64519 85.1029 2.64976 85.0801 2.6589Z" fill="#2B388F"/>
<path d="M82.9492 3.29634C83.0633 3.25984 83.1773 3.22334 83.2959 3.19141C83.1819 3.2279 83.0678 3.25984 82.9492 3.29634Z" fill="#2B388F"/>
<path d="M79.2266 4.57985C79.2628 4.56625 79.3036 4.55266 79.3444 4.53906C79.3081 4.55266 79.2673 4.56625 79.2266 4.57985Z" fill="#2B388F"/>
<path d="M77.251 5.37321C77.3696 5.32302 77.4928 5.27284 77.6114 5.22266C77.4882 5.27284 77.3696 5.32302 77.251 5.37321Z" fill="#2B388F"/>
<path d="M102.73 0.0403743C102.867 0.0403743 103.004 0.03125 103.141 0.03125C103.004 0.03125 102.867 0.0358122 102.73 0.0403743Z" fill="#2B388F"/>
<path d="M80.9512 3.9539C81.0561 3.9174 81.1656 3.8809 81.2705 3.83984C81.161 3.87634 81.0561 3.91284 80.9512 3.9539Z" fill="#2B388F"/>
<path d="M95.6729 0.576872C95.796 0.563185 95.9238 0.549499 96.0515 0.53125C95.9283 0.544937 95.8006 0.558623 95.6729 0.576872Z" fill="#2B388F"/>
<path d="M100.249 0.15953C100.381 0.150405 100.509 0.141281 100.641 0.136719C100.509 0.145843 100.381 0.154967 100.249 0.15953Z" fill="#2B388F"/>
<path d="M75.3857 6.19093C75.4998 6.13618 75.6184 6.086 75.7325 6.03125C75.6138 6.08143 75.4998 6.13618 75.3857 6.19093Z" fill="#2B388F"/>
<path d="M91.3721 1.22322C91.3721 1.22322 91.3989 1.22322 91.4079 1.21875C91.3944 1.21875 91.381 1.21875 91.3721 1.22322Z" fill="#2B388F"/>
<path d="M89.0859 1.67456C89.2046 1.64718 89.3232 1.62437 89.4372 1.60156C89.3186 1.62437 89.2 1.65175 89.0859 1.67456Z" fill="#2B388F"/>
<path d="M62.5938 13.8612C62.7899 13.7106 62.9907 13.5601 63.1868 13.4141C62.9861 13.5646 62.7899 13.7106 62.5938 13.8612Z" fill="#2B388F"/>
<path d="M73.8018 6.92849C73.8702 6.892 73.9432 6.86006 74.0162 6.82812C73.9477 6.86006 73.8748 6.89656 73.8018 6.92849Z" fill="#2B388F"/>
<path d="M61.0469 15.0755C61.2978 14.8748 61.5487 14.6695 61.8042 14.4688C61.5487 14.6695 61.2978 14.8702 61.0469 15.0755Z" fill="#2B388F"/>
<path d="M35.4854 151.602C35.4854 151.994 35.499 152.373 35.5173 152.747L35.5264 118.102C35.5127 126.656 35.4854 142.6 35.4854 151.602Z" fill="#2B388F"/>
<path d="M57.0146 18.6089C57.7218 17.9383 58.4517 17.2813 59.1999 16.6289C58.4517 17.2813 57.7218 17.9428 57.0146 18.6089Z" fill="#2B388F"/>
<path d="M59.4814 16.3832C59.8555 16.0638 60.2296 15.7445 60.6129 15.4297C60.2296 15.7445 59.851 16.0638 59.4814 16.3832Z" fill="#2B388F"/>
<path d="M67.0869 10.7087C67.2512 10.6037 67.4154 10.4988 67.5796 10.3984C67.4154 10.5034 67.2512 10.6037 67.0869 10.7087Z" fill="#2B388F"/>
<path d="M167.906 112.126C171.478 101.045 175.201 90.643 176.944 81.7422C175.201 90.6339 171.478 101.04 167.901 112.126H167.906Z" fill="#2B388F"/>
<path d="M177.825 75.625C177.807 75.8485 177.784 76.0721 177.766 76.3002C177.788 76.0767 177.807 75.8485 177.825 75.625Z" fill="#2B388F"/>
<path d="M41.4515 112.123H141.965C146.888 103.309 151.026 94.7318 146.956 87.8201C145.433 85.2333 143.384 83.8236 142.476 83.3263C129.346 76.15 104.852 100.124 92.1372 93.4589C79.2901 86.7252 101.116 44.6072 81.7856 43.1883C73.56 43.1883 56.6481 46.8746 45.0282 33.1105C48.1259 28.3339 52.0494 23.3155 56.9492 18.6758C41.6157 33.1881 35.8445 51.3592 35.0462 54.4797L16.8477 112.296H35.548C35.548 112.296 35.548 114.564 35.5389 118.09C35.5389 114.81 38.153 112.127 41.4606 112.127L41.4515 112.123ZM52.1771 78.5634C50.407 82.8063 52.4098 87.6832 56.6526 89.4533C60.8954 91.2235 65.7724 89.2207 67.5425 84.9779C65.7724 89.2207 60.8954 91.228 56.6526 89.4533C52.4098 87.6832 50.4024 82.8063 52.1771 78.5634Z" fill="#1F75FF"/>
<path d="M60.1433 237.784C60.1433 234.504 62.8258 231.816 66.1106 231.816H66.065C62.7848 231.816 60.0977 234.499 60.0977 237.784V265.371H60.1433V237.784Z" fill="#2B388F"/>
<path d="M41.4519 265.372C38.1398 265.372 35.4846 262.69 35.4846 259.405L35.4937 230.098C31.7847 232.073 28.0391 234.117 24.321 236.284C2.02104 249.272 0 265.473 0 265.473H60.093V265.372H41.4519Z" fill="#0B1F5B"/>
<path d="M177.309 79.7188C177.264 79.9925 177.218 80.2662 177.168 80.5399C177.218 80.2662 177.264 79.9879 177.309 79.7188Z" fill="#2B388F"/>
<path d="M119 265.371L118.891 265.471H253.598C253.598 265.471 253.598 265.435 253.593 265.371H119.005H119Z" fill="#2B388F"/>
<path d="M177.935 73.7656C177.925 73.9664 177.921 74.1717 177.907 74.377C177.916 74.1717 177.925 73.9709 177.935 73.7656Z" fill="#2B388F"/>
<path d="M196.685 207.553C147.916 184.345 157.241 145.206 167.907 112.121C163.477 125.858 159.266 140.635 159.335 154.873C140.379 151.839 134.84 145.667 133.047 140.981C129.781 132.441 136.378 122.131 141.966 112.121H41.4527C38.1405 112.121 35.531 114.804 35.531 118.084V118.098L35.5218 152.743C36.8631 178.615 84.0406 158.459 84.0771 158.445C84.0771 158.445 91.1895 169.545 90.4367 179.025C88.3974 204.875 62.7854 215.568 35.4945 230.094L35.4854 259.402C35.4854 262.682 38.1405 265.369 41.4527 265.369H60.0937V237.782C60.0937 234.501 62.7763 231.814 66.061 231.814H140.228C145.657 231.814 148.253 238.493 144.257 242.166L119.055 265.369H253.598C253.48 263.416 250.779 233.288 196.69 207.553H196.685Z" fill="#2B388F"/>
<path d="M60.1432 237.784V265.371H119.004L144.206 242.168C148.202 238.5 145.606 231.816 140.177 231.816H66.106C62.8258 231.816 60.1387 234.499 60.1387 237.784H60.1432Z" fill="#1F75FF"/>
<path d="M144.206 242.168L119.005 265.371H119.051L144.252 242.168C148.248 238.5 145.653 231.816 140.224 231.816H140.178C145.607 231.816 148.203 238.495 144.206 242.168Z" fill="#2B388F"/>
<path d="M60.143 265.371H60.0928V265.471H118.89L119 265.371H60.143Z" fill="#2B388F"/>
<path d="M67.5742 10.3946C67.9529 10.1574 68.3315 9.92017 68.7148 9.6875C68.3315 9.92017 67.9483 10.1528 67.5742 10.3946Z" fill="#30C9E2"/>
<path d="M72.3789 7.6466C72.8488 7.40481 73.3233 7.16301 73.8023 6.92578C73.3233 7.15845 72.8488 7.40025 72.3789 7.6466Z" fill="#30C9E2"/>
<path d="M176.952 81.6797C176.952 81.6797 176.943 81.7208 176.938 81.7437C176.938 81.7208 176.948 81.7025 176.952 81.6797Z" fill="#30C9E2"/>
<path d="M56.9453 18.6733C56.9453 18.6733 56.991 18.6322 57.0139 18.6094C56.991 18.6322 56.9682 18.6505 56.9453 18.6733Z" fill="#30C9E2"/>
<path d="M177.956 72.5979C177.956 72.5979 177.956 72.6116 177.956 72.6207C177.956 72.6116 177.956 72.607 177.956 72.5979C177.956 32.5055 145.451 0 105.358 0C145.455 0 177.956 32.5055 177.956 72.5979Z" fill="#30C9E2"/>
<path d="M60.6123 15.4262C60.7583 15.3075 60.8997 15.1889 61.0457 15.0703C60.8997 15.1889 60.7537 15.3075 60.6123 15.4262Z" fill="#30C9E2"/>
<path d="M64.6641 12.3398C64.9241 12.1573 65.1841 11.9748 65.4442 11.7969C65.1796 11.9748 64.9195 12.1573 64.6641 12.3398Z" fill="#30C9E2"/>
<path d="M63.1865 13.4075C63.4374 13.2204 63.6884 13.038 63.9393 12.8555C63.6884 13.038 63.4374 13.225 63.1865 13.4075Z" fill="#30C9E2"/>
<path d="M89.4375 1.60132C90.0762 1.46901 90.7195 1.33671 91.3673 1.22266C90.7149 1.34127 90.0716 1.46901 89.4375 1.60132Z" fill="#30C9E2"/>
<path d="M85.1436 2.64569C85.7366 2.48145 86.3343 2.32633 86.9411 2.17578C86.3388 2.32633 85.7366 2.48145 85.1436 2.64569Z" fill="#30C9E2"/>
<path d="M177.848 75.3086C177.839 75.4135 177.83 75.523 177.825 75.6279C177.834 75.5185 177.843 75.4135 177.848 75.3086Z" fill="#30C9E2"/>
<path d="M177.168 80.5352C177.155 80.599 177.146 80.6629 177.132 80.7313C177.146 80.6675 177.155 80.6036 177.168 80.5352Z" fill="#30C9E2"/>
<path d="M98.1465 0.311364C98.8399 0.252056 99.5425 0.201872 100.25 0.15625C99.5425 0.201872 98.8399 0.247493 98.1465 0.311364Z" fill="#30C9E2"/>
<path d="M96.0479 0.526922C96.7322 0.449365 97.4211 0.371808 98.1236 0.3125C97.4256 0.37637 96.7322 0.449365 96.0479 0.526922Z" fill="#30C9E2"/>
<path d="M177.943 73.4766C177.943 73.5724 177.938 73.6682 177.934 73.7685C177.934 73.6727 177.943 73.5724 177.943 73.4766Z" fill="#30C9E2"/>
<path d="M103.138 0.0319352C103.872 0.0136865 104.607 0 105.355 0C104.607 0 103.868 0.0136865 103.138 0.0319352Z" fill="#30C9E2"/>
<path d="M74.0166 6.8262C74.4683 6.60722 74.9245 6.3928 75.3853 6.1875C74.9245 6.39736 74.4683 6.61178 74.0166 6.8262Z" fill="#30C9E2"/>
<path d="M77.6113 5.22139C78.1451 5.00241 78.6834 4.78798 79.2263 4.57812C78.6789 4.78342 78.1451 5.00241 77.6113 5.22139Z" fill="#30C9E2"/>
<path d="M79.3447 4.53708C79.8739 4.33635 80.4077 4.14474 80.9506 3.95312C80.4077 4.14017 79.8739 4.33635 79.3447 4.53708Z" fill="#30C9E2"/>
<path d="M75.7354 6.02414C76.2372 5.80059 76.739 5.58161 77.25 5.36719C76.739 5.58161 76.2326 5.80059 75.7354 6.02414Z" fill="#30C9E2"/>
<path d="M177.495 78.4961C177.486 78.5508 177.477 78.6056 177.473 78.6558C177.482 78.601 177.491 78.5463 177.495 78.4961Z" fill="#30C9E2"/>
<path d="M177.76 76.3047C177.751 76.3914 177.742 76.4735 177.737 76.5602C177.746 76.4735 177.756 76.3914 177.76 76.3047Z" fill="#30C9E2"/>
<path d="M45.0195 33.1077C56.6394 46.8718 73.5559 43.1855 81.777 43.1855C101.111 44.6044 79.2815 86.7178 92.1285 93.4561C104.843 100.121 129.338 76.1472 142.468 83.3235C143.38 83.8208 145.428 85.2305 146.948 87.8173C151.017 94.7336 146.879 103.306 141.957 112.12H167.893C171.469 101.034 175.192 90.6321 176.935 81.7359C176.935 81.7131 176.944 81.6949 176.948 81.672C177.012 81.3527 177.072 81.0379 177.126 80.7231C177.14 80.6592 177.149 80.5954 177.163 80.5269C177.213 80.2532 177.259 79.9749 177.304 79.7057C177.318 79.6328 177.327 79.5598 177.341 79.4868C177.386 79.2039 177.428 78.9256 177.469 78.6473C177.478 78.5926 177.487 78.5378 177.491 78.4876C177.587 77.8307 177.665 77.1829 177.733 76.5442C177.742 76.4575 177.751 76.3754 177.756 76.2887C177.779 76.0651 177.797 75.837 177.815 75.6135C177.824 75.5085 177.834 75.399 177.838 75.2941C177.852 75.0934 177.865 74.8926 177.879 74.6919C177.884 74.5824 177.893 74.4729 177.897 74.3634C177.907 74.1581 177.916 73.9574 177.925 73.7521C177.925 73.6563 177.934 73.5559 177.934 73.4601C177.943 73.1727 177.948 72.8899 177.948 72.607C177.948 72.5979 177.948 72.5933 177.948 72.5842C177.957 32.5055 145.451 0 105.359 0C104.611 0 103.872 0.0136865 103.142 0.0319352C103.005 0.0319352 102.868 0.0364974 102.731 0.0410596C102.028 0.0638704 101.33 0.0912435 100.642 0.132303C100.509 0.141427 100.382 0.150552 100.249 0.155114C99.5421 0.200736 98.8395 0.246357 98.146 0.310228C98.1369 0.310228 98.1324 0.310228 98.1232 0.310228C97.4252 0.374098 96.7318 0.447093 96.0474 0.52465C95.9243 0.538337 95.7965 0.552023 95.6688 0.570272C95.0073 0.652391 94.3549 0.739072 93.707 0.834878C93.5884 0.853127 93.4744 0.871375 93.3558 0.889624C92.6988 0.989992 92.0464 1.09492 91.4032 1.21354C91.3895 1.21354 91.3758 1.21354 91.3667 1.2181C90.7143 1.33672 90.071 1.46446 89.4369 1.59676C89.3182 1.61957 89.1996 1.64694 89.0856 1.66976C88.4697 1.80206 87.8629 1.94349 87.2607 2.08948C87.1512 2.11685 87.0463 2.14422 86.9368 2.17159C86.3346 2.32215 85.7324 2.47726 85.1393 2.6415C85.1165 2.64606 85.0982 2.65062 85.0754 2.65975C84.4732 2.82855 83.8801 3.00191 83.2916 3.1844C83.1776 3.22089 83.0635 3.25283 82.9449 3.28933C82.3792 3.46725 81.818 3.64974 81.266 3.84135C81.1565 3.87785 81.0516 3.91435 80.9466 3.9554C80.4037 4.14245 79.87 4.33863 79.3408 4.53936C79.3043 4.55305 79.2632 4.56674 79.2221 4.58042C78.6747 4.78572 78.1409 5.0047 77.6071 5.22369C77.484 5.27387 77.3653 5.32406 77.2467 5.37424C76.7358 5.58866 76.2294 5.80765 75.7321 6.03119C75.6135 6.08138 75.4994 6.13612 75.3854 6.19087C74.9246 6.40073 74.4684 6.61515 74.0167 6.82957C73.9483 6.86151 73.8753 6.89801 73.8023 6.92994C73.3233 7.16261 72.8488 7.40441 72.3789 7.65077C72.242 7.72376 72.1052 7.79219 71.9683 7.86519C71.5212 8.10242 71.0741 8.33965 70.6361 8.58601C70.4993 8.66357 70.3624 8.74113 70.2255 8.81868C69.856 9.02854 69.491 9.2384 69.1306 9.45282C68.9938 9.53494 68.8569 9.6125 68.72 9.69462C68.3368 9.92729 67.9536 10.16 67.5795 10.4018C67.4152 10.5067 67.251 10.6071 67.0868 10.712C66.7081 10.9538 66.3294 11.2001 65.9599 11.4511C65.7865 11.5651 65.6177 11.6837 65.4489 11.7978C65.1843 11.9757 64.9243 12.1582 64.6688 12.3407C64.427 12.514 64.1807 12.6874 63.9434 12.8608C63.6925 13.0433 63.4416 13.2303 63.1907 13.4128C62.9899 13.5633 62.7938 13.7093 62.5976 13.8599C62.333 14.0606 62.0684 14.2659 61.8083 14.4712C61.5528 14.672 61.3019 14.8727 61.051 15.078C60.905 15.1966 60.759 15.3152 60.6176 15.4338C60.2344 15.7486 59.8557 16.068 59.4862 16.3873C59.3904 16.4694 59.2991 16.547 59.2033 16.6291C58.4551 17.2815 57.7252 17.943 57.018 18.6091C56.9952 18.6319 56.9724 18.6502 56.9496 18.673C52.0498 23.3127 48.1218 28.3311 45.0287 33.1077H45.0195Z" fill="#00BDFF"/>
<path d="M133.047 140.981C134.84 145.667 140.378 151.839 159.334 154.873C159.266 140.635 163.472 125.858 167.907 112.121H141.971C136.382 122.131 129.785 132.441 133.052 140.981H133.047Z" fill="#1F75FF"/>
</svg>
