<svg width="431" height="400" viewBox="0 0 431 400" fill="none" xmlns="http://www.w3.org/2000/svg">
<g clip-path="url(#clip0_187_2216)">
<path d="M110.541 101.375C110.541 101.375 110.557 101.375 110.567 101.375C111.34 101.309 112.123 101.253 112.911 101.202C113.059 101.192 113.201 101.182 113.349 101.177C114.117 101.131 114.895 101.1 115.678 101.075C115.831 101.075 115.983 101.065 116.136 101.065C116.955 101.045 117.774 101.029 118.608 101.029C145.11 101.029 168.632 113.769 183.397 133.452V102.865C199.865 102.865 244.396 98.6898 261.805 118.789C275.659 107.682 293.246 101.029 312.389 101.029C313.32 101.029 314.236 101.045 315.146 101.07C315.456 101.08 315.756 101.1 316.067 101.111C316.662 101.136 317.257 101.156 317.842 101.187C318.198 101.207 318.543 101.238 318.894 101.263C319.423 101.299 319.957 101.334 320.481 101.38C320.842 101.411 321.188 101.456 321.544 101.492C322.048 101.543 322.556 101.589 323.06 101.65C323.411 101.69 323.756 101.741 324.102 101.792C324.596 101.858 325.094 101.919 325.582 101.99C325.918 102.041 326.248 102.102 326.579 102.153C327.067 102.235 327.561 102.311 328.044 102.397C328.364 102.453 328.674 102.525 328.995 102.586C329.483 102.682 329.971 102.774 330.449 102.875C330.755 102.942 331.05 103.013 331.35 103.084C331.624 103.145 331.899 103.206 332.168 103.272C319.861 75.0913 287.474 64.5331 248.318 61.1001V1.01562H211.791V59.493C202.174 59.493 192.388 59.671 182.598 59.8744V1.01562H146.071V61.0441C138.117 61.1967 130.331 61.3544 122.773 61.3544V61.1713L72.3975 61.1459V100.195C72.3975 100.195 99.3577 99.6815 98.8999 100.175C102.592 100.175 105.659 100.709 108.207 101.619C108.212 101.619 108.222 101.619 108.227 101.619C108.99 101.533 109.763 101.446 110.541 101.38V101.375Z" fill="#2B388F" stroke="#2B388F" stroke-width="2.03435" stroke-miterlimit="10"/>
<path d="M231.896 173.474C220.849 175.569 209.096 175.996 199.315 176.002C199.458 177.965 199.534 179.953 199.534 181.952C199.534 181.952 199.534 181.962 199.534 181.967C199.534 182.288 199.529 182.608 199.519 182.934C199.519 183.04 199.514 183.147 199.509 183.249C199.499 183.478 199.493 183.707 199.478 183.935C199.473 184.058 199.463 184.175 199.458 184.297C199.443 184.52 199.427 184.749 199.412 184.973C199.402 185.09 199.397 185.207 199.387 185.324C199.366 185.573 199.341 185.827 199.315 186.082C199.305 186.173 199.3 186.265 199.29 186.356C199.214 187.068 199.127 187.791 199.02 188.523C199.01 188.579 199.005 188.635 198.995 188.696C198.949 189.006 198.903 189.321 198.853 189.642C198.842 189.718 198.827 189.799 198.812 189.876C198.761 190.181 198.71 190.491 198.654 190.801C198.644 190.873 198.629 190.939 198.619 191.01C198.553 191.366 198.486 191.717 198.42 192.078C198.42 192.098 198.415 192.119 198.41 192.139C197.195 198.339 195.12 205.199 192.76 212.488C205.083 212.213 222.415 211.847 238.797 214.201C234.794 201.955 231.458 190.857 231.458 181.952C231.458 179.089 231.611 176.256 231.901 173.469L231.896 173.474Z" fill="#1E75FF" stroke="#1E75FF" stroke-width="2.03435" stroke-miterlimit="10"/>
<path d="M147.129 396.973H146.066V397.441H182.593V396.973H147.129Z" fill="#30C9E2" stroke="black" stroke-width="2.03435" stroke-miterlimit="10"/>
<path d="M215.529 329.927C236.849 318.601 246.934 304.193 250.566 288.574C226.657 294.708 195.409 293.029 181.754 293.029C181.754 293.029 188.076 316.45 215.504 329.932C215.504 329.932 215.514 329.933 215.519 329.927C215.519 329.927 215.529 329.927 215.534 329.932L215.529 329.927Z" fill="#30C9E2"/>
<path d="M215.529 329.927C236.849 318.601 246.934 304.193 250.566 288.574C226.657 294.708 195.409 293.029 181.754 293.029C181.754 293.029 188.076 316.45 215.504 329.932C215.504 329.932 215.514 329.933 215.519 329.927C215.519 329.927 215.529 329.927 215.534 329.932L215.529 329.927Z" stroke="#30C9E2" stroke-width="2.03435" stroke-miterlimit="10"/>
<path d="M248.252 396.973H211.73V397.441H248.252V396.973Z" fill="#30C9E2" stroke="black" stroke-width="2.03435" stroke-miterlimit="10"/>
<path d="M105.232 102.018C105.364 101.998 105.491 101.977 105.624 101.957" stroke="black" stroke-width="2.03435" stroke-miterlimit="10"/>
<path d="M100.466 102.894C100.593 102.868 100.726 102.838 100.858 102.812C100.726 102.838 100.599 102.868 100.466 102.894Z" fill="#30C9E2" stroke="black" stroke-width="2.03435" stroke-miterlimit="10"/>
<path d="M69.2085 117.83C69.4831 117.607 69.7578 117.388 70.0375 117.164C69.7578 117.383 69.4831 117.607 69.2085 117.83Z" fill="#30C9E2" stroke="black" stroke-width="2.03435" stroke-miterlimit="10"/>
<path d="M103.009 102.384C103.009 102.384 103.04 102.384 103.051 102.379C103.035 102.379 103.02 102.379 103.009 102.384Z" fill="#30C9E2" stroke="black" stroke-width="2.03435" stroke-miterlimit="10"/>
<path d="M192.755 212.493C189.688 221.963 186.143 232.16 183.392 242.586V242.622C186.138 232.181 189.688 221.968 192.76 212.488L192.755 212.493Z" fill="#30C9E2" stroke="black" stroke-width="2.03435" stroke-miterlimit="10"/>
<path d="M182.593 337.337V349.085C183.539 348.373 184.5 347.667 185.492 346.954C187.409 345.586 189.418 344.228 191.524 342.881C193.629 341.533 195.836 340.19 198.15 338.868C198.903 338.436 199.666 338.008 200.439 337.581C194.57 337.546 188.63 337.474 182.598 337.332L182.593 337.337Z" fill="#30C9E2"/>
<path d="M182.593 337.337V349.085C183.539 348.373 184.5 347.667 185.492 346.954C187.409 345.586 189.418 344.228 191.524 342.881C193.629 341.533 195.836 340.19 198.15 338.868C198.903 338.436 199.666 338.008 200.439 337.581C194.57 337.546 188.63 337.474 182.598 337.332L182.593 337.337Z" stroke="#30C9E2" stroke-width="2.03435" stroke-miterlimit="10"/>
<path d="M74.1162 114.176C74.3044 114.048 74.4926 113.916 74.6858 113.789C74.4926 113.916 74.3095 114.048 74.1162 114.176Z" fill="#30C9E2" stroke="black" stroke-width="2.03435" stroke-miterlimit="10"/>
<path d="M72.4331 115.352C72.6976 115.159 72.9671 114.966 73.2367 114.777C72.9671 114.971 72.6976 115.159 72.4331 115.352Z" fill="#30C9E2" stroke="black" stroke-width="2.03435" stroke-miterlimit="10"/>
<path d="M70.9326 116.47C71.1513 116.302 71.37 116.139 71.5887 115.977C71.37 116.139 71.1513 116.307 70.9326 116.47Z" fill="#30C9E2" stroke="black" stroke-width="2.03435" stroke-miterlimit="10"/>
<path d="M79.436 110.853C79.5886 110.767 79.7412 110.68 79.8938 110.594" stroke="black" stroke-width="2.03435" stroke-miterlimit="10"/>
<path d="M75.9424 112.955C76.1204 112.838 76.3035 112.726 76.4815 112.609C76.2984 112.721 76.1204 112.838 75.9424 112.955Z" fill="#30C9E2" stroke="black" stroke-width="2.03435" stroke-miterlimit="10"/>
<path d="M98.0708 103.447C98.1878 103.416 98.3098 103.386 98.4268 103.355C98.3047 103.386 98.1878 103.416 98.0708 103.447Z" fill="#30C9E2" stroke="black" stroke-width="2.03435" stroke-miterlimit="10"/>
<path d="M77.7632 111.827C77.9107 111.735 78.0632 111.649 78.2158 111.562C78.0632 111.649 77.9158 111.741 77.7632 111.827Z" fill="#30C9E2" stroke="black" stroke-width="2.03435" stroke-miterlimit="10"/>
<path d="M106.168 292.846C116.528 292.815 119.279 285.39 119.905 280.736V262.265C116.629 264.716 113.095 267.188 109.27 269.634C104.551 272.655 99.9834 275.259 95.6655 277.507C99.9834 275.259 104.545 272.655 109.27 269.634C113.095 267.188 116.635 264.711 119.905 262.265V204.382C113.817 206.554 108.217 207.5 103.859 205.211C89.5371 197.705 113.868 150.752 92.319 149.17C83.1492 149.17 64.2959 153.28 51.3422 137.93C54.7955 132.605 59.1642 127.016 64.6265 121.844C47.5379 138.022 41.1043 158.274 40.2143 161.753L19.9268 226.206H40.5093C40.5093 226.206 40.4432 255.978 40.7737 270.026C41.5061 300.795 94.8365 277.68 94.8772 277.66C94.8772 277.66 99.5054 284.892 101.316 293.019C104.286 293.004 106.295 292.953 106.168 292.841V292.846ZM64.3111 200.751C59.5813 198.778 57.3435 193.341 59.3219 188.611C57.3486 193.341 59.5813 198.778 64.3111 200.751C69.041 202.724 74.4778 200.492 76.4511 195.762C74.4778 200.492 69.041 202.729 64.3111 200.751Z" fill="white"/>
<path d="M119.905 262.265V280.736C119.279 285.39 116.528 292.815 106.168 292.846V292.841C106.295 292.953 104.286 293.004 101.316 293.019C99.5054 284.892 94.8772 277.66 94.8772 277.66C94.8365 277.68 41.5061 300.795 40.7737 270.026C40.4432 255.978 40.5093 226.206 40.5093 226.206H19.9268L40.2143 161.753C41.1043 158.274 47.5379 138.022 64.6265 121.844C59.1642 127.016 54.7955 132.605 51.3422 137.93C64.2959 153.28 83.1492 149.17 92.319 149.17C113.868 150.752 89.5371 197.705 103.859 205.211C108.217 207.5 113.817 206.554 119.905 204.382V262.265ZM119.905 262.265C116.629 264.716 113.095 267.188 109.27 269.634M119.905 262.265C116.635 264.711 113.095 267.188 109.27 269.634M109.27 269.634C104.551 272.655 99.9834 275.259 95.6655 277.507C99.9834 275.259 104.545 272.655 109.27 269.634ZM64.3111 200.751C59.5813 198.778 57.3435 193.341 59.3219 188.611C57.3486 193.341 59.5813 198.778 64.3111 200.751ZM64.3111 200.751C69.041 202.724 74.4778 200.492 76.4511 195.762C74.4778 200.492 69.041 202.729 64.3111 200.751Z" stroke="black" stroke-width="2.03435" stroke-miterlimit="10"/>
<path d="M85.1934 107.923C85.3205 107.867 85.4477 107.806 85.5799 107.75C85.4527 107.806 85.3205 107.867 85.1934 107.923Z" fill="#30C9E2" stroke="black" stroke-width="2.03435" stroke-miterlimit="10"/>
<path d="M67.4644 119.284C67.8763 118.928 68.2934 118.577 68.7206 118.227C68.2984 118.577 67.8763 118.928 67.4644 119.284Z" fill="#30C9E2" stroke="black" stroke-width="2.03435" stroke-miterlimit="10"/>
<path d="M119.904 336.477H78.2359C64.3159 346.165 46.0475 354.084 28.2673 364.434C3.40246 378.913 1.14941 396.973 1.14941 396.973H146.061L146.005 336.705C137.476 336.649 128.774 336.477 119.899 336.477H119.904Z" fill="white" stroke="black" stroke-width="2.03435" stroke-miterlimit="10"/>
<path d="M95.9961 103.989C95.9961 103.989 96.0419 103.979 96.0673 103.969C96.0419 103.974 96.0215 103.979 95.9961 103.989Z" fill="#30C9E2" stroke="black" stroke-width="2.03435" stroke-miterlimit="10"/>
<path d="M81.3789 109.79C81.5315 109.708 81.6841 109.632 81.8366 109.551" stroke="black" stroke-width="2.03435" stroke-miterlimit="10"/>
<path d="M64.7129 121.765C65.5012 121.022 66.3099 120.285 67.1439 119.562" stroke="black" stroke-width="2.03435" stroke-miterlimit="10"/>
<path d="M108.207 101.617C108.075 101.632 107.942 101.648 107.805 101.663C107.937 101.648 108.07 101.632 108.207 101.617Z" fill="#30C9E2" stroke="black" stroke-width="2.03435" stroke-miterlimit="10"/>
<path d="M83.4287 108.745C83.505 108.709 83.5864 108.668 83.6627 108.633" stroke="black" stroke-width="2.03435" stroke-miterlimit="10"/>
<path d="M87.2734 107.012C87.4057 106.956 87.543 106.9 87.6752 106.844" stroke="black" stroke-width="2.03435" stroke-miterlimit="10"/>
<path d="M91.3984 105.435C91.5154 105.394 91.6375 105.353 91.7544 105.312" stroke="black" stroke-width="2.03435" stroke-miterlimit="10"/>
<path d="M93.626 104.699C93.7531 104.658 93.8803 104.623 94.0074 104.582" stroke="black" stroke-width="2.03435" stroke-miterlimit="10"/>
<path d="M89.4756 106.132C89.5163 106.116 89.5621 106.101 89.6078 106.086C89.5671 106.101 89.5214 106.116 89.4756 106.132Z" fill="#30C9E2" stroke="black" stroke-width="2.03435" stroke-miterlimit="10"/>
<path d="M199.025 188.534C199.132 187.801 199.219 187.079 199.295 186.367" stroke="black" stroke-width="2.03435" stroke-miterlimit="10"/>
<path d="M198.853 189.649C198.903 189.334 198.949 189.018 198.995 188.703C198.949 189.013 198.903 189.329 198.853 189.649Z" fill="#30C9E2" stroke="black" stroke-width="2.03435" stroke-miterlimit="10"/>
<path d="M108.227 101.617C108.227 101.617 108.212 101.617 108.207 101.617C108.212 101.617 108.222 101.617 108.227 101.617Z" fill="#30C9E2" stroke="black" stroke-width="2.03435" stroke-miterlimit="10"/>
<path d="M199.32 186.094C199.346 185.839 199.366 185.585 199.392 185.336C199.371 185.585 199.346 185.839 199.32 186.094Z" fill="#30C9E2" stroke="black" stroke-width="2.03435" stroke-miterlimit="10"/>
<path d="M199.417 184.981C199.432 184.752 199.448 184.528 199.463 184.305C199.448 184.528 199.432 184.757 199.417 184.981Z" fill="#30C9E2" stroke="black" stroke-width="2.03435" stroke-miterlimit="10"/>
<path d="M112.906 101.205C113.054 101.195 113.196 101.185 113.344 101.18C113.196 101.19 113.054 101.2 112.906 101.205Z" fill="#30C9E2" stroke="black" stroke-width="2.03435" stroke-miterlimit="10"/>
<path d="M115.673 101.073C115.825 101.073 115.978 101.062 116.131 101.062C115.978 101.062 115.825 101.068 115.673 101.073Z" fill="#30C9E2" stroke="black" stroke-width="2.03435" stroke-miterlimit="10"/>
<path d="M110.542 101.375C110.542 101.375 110.557 101.375 110.567 101.375C110.557 101.375 110.552 101.375 110.542 101.375Z" fill="#30C9E2" stroke="black" stroke-width="2.03435" stroke-miterlimit="10"/>
<path d="M192.754 212.493C195.114 205.205 197.189 198.349 198.405 192.145C197.189 198.344 195.114 205.2 192.754 212.493Z" fill="#30C9E2" stroke="black" stroke-width="2.03435" stroke-miterlimit="10"/>
<path d="M198.42 192.088C198.492 191.732 198.558 191.376 198.619 191.02C198.553 191.376 198.487 191.726 198.42 192.088Z" fill="#30C9E2" stroke="black" stroke-width="2.03435" stroke-miterlimit="10"/>
<path d="M198.654 190.808C198.71 190.498 198.761 190.188 198.812 189.883" stroke="black" stroke-width="2.03435" stroke-miterlimit="10"/>
<path d="M199.483 183.941C199.493 183.712 199.503 183.483 199.513 183.254C199.503 183.483 199.498 183.712 199.483 183.941Z" fill="#30C9E2" stroke="black" stroke-width="2.03435" stroke-miterlimit="10"/>
<path d="M148.533 392.062C148.767 391.396 149.036 390.674 149.341 389.896C149.957 388.339 150.735 386.559 151.706 384.606C152.195 383.63 152.729 382.608 153.319 381.545C154.499 379.424 155.887 377.14 157.53 374.745C158.349 373.545 159.233 372.319 160.185 371.063C160.82 370.229 161.481 369.379 162.173 368.525C162.519 368.098 162.875 367.665 163.236 367.233C163.963 366.369 164.721 365.494 165.509 364.614C167.488 362.412 169.67 360.169 172.08 357.901C173.047 356.995 174.044 356.085 175.086 355.169C177.395 353.14 179.897 351.106 182.593 349.077V337.328C188.63 337.466 194.57 337.537 200.434 337.577C203.623 335.818 207 334.089 210.575 332.4C211.033 332.186 211.481 331.968 211.928 331.749C213.154 331.149 214.339 330.539 215.498 329.918C174.094 307.764 175.096 274.131 183.391 242.624V242.589C180.676 252.887 178.728 263.41 178.773 273.679C157.642 270.296 151.467 263.415 149.469 258.192C142.623 240.29 174.664 215.384 164.975 198.926C163.277 196.043 160.993 194.471 159.981 193.917C149.845 188.378 133.631 199.491 119.91 204.384V262.266V280.738C119.279 285.391 116.533 292.817 106.173 292.847C106.3 292.964 104.286 293.015 101.321 293.025C101.88 295.533 102.17 298.121 101.977 300.608C100.721 316.537 91.4338 327.299 78.2461 336.479H119.915C128.784 336.479 137.486 336.652 146.02 336.708L146.076 396.975H147.139C147.139 396.975 147.455 395.17 148.543 392.067L148.533 392.062Z" fill="#1E75FF"/>
<path d="M119.91 262.266V204.384C133.631 199.491 149.845 188.378 159.981 193.917C160.993 194.471 163.277 196.043 164.975 198.926C174.664 215.384 142.623 240.29 149.469 258.192C151.467 263.415 157.642 270.296 178.773 273.679C178.728 263.41 180.676 252.887 183.391 242.589V242.624C175.096 274.131 174.094 307.764 215.498 329.918C214.339 330.539 213.154 331.149 211.928 331.749C211.481 331.968 211.033 332.186 210.575 332.4C207 334.089 203.623 335.818 200.434 337.577C194.57 337.537 188.63 337.466 182.593 337.328V349.077C179.897 351.106 177.395 353.14 175.086 355.169C174.044 356.085 173.047 356.995 172.08 357.901C169.67 360.169 167.488 362.412 165.509 364.614C164.721 365.494 163.963 366.369 163.236 367.233C162.875 367.665 162.519 368.098 162.173 368.525C161.481 369.379 160.82 370.229 160.185 371.063C159.233 372.319 158.349 373.545 157.53 374.745C155.887 377.14 154.499 379.424 153.319 381.545C152.729 382.608 152.195 383.63 151.706 384.606C150.735 386.559 149.957 388.339 149.341 389.896C149.036 390.674 148.767 391.396 148.533 392.062L148.543 392.067C147.455 395.17 147.139 396.975 147.139 396.975H146.076L146.02 336.708C137.486 336.652 128.784 336.479 119.915 336.479H78.2461C91.4338 327.299 100.721 316.537 101.977 300.608C102.17 298.121 101.88 295.533 101.321 293.025C104.286 293.015 106.3 292.964 106.173 292.847C116.533 292.817 119.279 285.391 119.91 280.738V262.266ZM119.91 262.266C122.193 260.557 124.35 258.863 126.369 257.2" stroke="#1E75FF" stroke-width="2.03435" stroke-miterlimit="10"/>
<path d="M199.519 182.935C199.529 182.61 199.534 182.289 199.534 181.969" stroke="black" stroke-width="2.03435" stroke-miterlimit="10"/>
<path d="M346.124 108.074C346.653 108.318 347.182 108.562 347.701 108.817C347.182 108.562 346.658 108.318 346.124 108.074Z" fill="#30C9E2" stroke="black" stroke-width="2.03435" stroke-miterlimit="10"/>
<path d="M342.177 106.398C342.691 106.597 343.2 106.8 343.703 107.009" stroke="black" stroke-width="2.03435" stroke-miterlimit="10"/>
<path d="M402.72 364.431C373.023 347.139 341.959 336.637 332.082 313.344C318.864 323.877 301.206 330 280.231 333.469C281.823 335.518 283.761 337.481 286.095 339.327C301.963 351.9 321.254 362.305 328.44 381.255C330.734 387.302 330.943 391.895 330.943 391.895V396.971H429.837C429.837 396.971 427.584 378.911 402.72 364.431Z" fill="white" stroke="black" stroke-width="2.03435" stroke-miterlimit="10"/>
<path d="M344.176 107.211C344.695 107.435 345.219 107.658 345.727 107.887C345.219 107.653 344.695 107.435 344.176 107.211Z" fill="#30C9E2" stroke="black" stroke-width="2.03435" stroke-miterlimit="10"/>
<path d="M335.851 104.246C336.344 104.388 336.837 104.531 337.32 104.683" stroke="black" stroke-width="2.03435" stroke-miterlimit="10"/>
<path d="M340.128 105.629C340.631 105.807 341.135 105.99 341.628 106.178" stroke="black" stroke-width="2.03435" stroke-miterlimit="10"/>
<path d="M338.017 104.91C338.516 105.073 339.014 105.231 339.502 105.403C339.014 105.236 338.516 105.073 338.017 104.91Z" fill="#30C9E2" stroke="black" stroke-width="2.03435" stroke-miterlimit="10"/>
<path d="M351.642 110.902C352.202 111.223 352.756 111.543 353.305 111.874C352.761 111.543 352.202 111.223 351.642 110.902Z" fill="#30C9E2" stroke="black" stroke-width="2.03435" stroke-miterlimit="10"/>
<path d="M332.789 103.417C332.58 103.366 332.367 103.32 332.158 103.27" stroke="black" stroke-width="2.03435" stroke-miterlimit="10"/>
<path d="M348.016 108.977C348.555 109.246 349.089 109.516 349.618 109.79C349.089 109.511 348.555 109.241 348.016 108.977Z" fill="#30C9E2" stroke="black" stroke-width="2.03435" stroke-miterlimit="10"/>
<path d="M353.382 111.922C353.951 112.268 354.516 112.619 355.07 112.975" stroke="black" stroke-width="2.03435" stroke-miterlimit="10"/>
<path d="M333.628 103.633C334.111 103.76 334.599 103.882 335.077 104.014C334.599 103.882 334.111 103.755 333.628 103.633Z" fill="#30C9E2" stroke="black" stroke-width="2.03435" stroke-miterlimit="10"/>
<path d="M373.506 129.522C372.57 131.556 350.762 178.555 324.834 191.051C348.24 202.128 361.59 222.863 358.101 260.097C357.298 268.788 355.635 276.519 353.188 283.4C368.873 287.449 389.756 289.203 390.213 270.024C390.549 255.982 390.478 226.204 390.478 226.204H411.06L390.773 161.751C389.705 157.591 380.723 129.451 355.07 112.973C362.567 117.789 368.639 123.602 373.506 129.522ZM369.265 192.241C368.634 197.464 364.906 201.309 360.944 200.831C356.977 200.353 354.277 195.73 354.907 190.507C355.538 185.284 359.266 181.439 363.228 181.917C367.195 182.395 369.895 187.018 369.265 192.241ZM364.443 180.233C361.773 180.421 360.186 182.146 359.881 182.491C360.186 182.146 361.768 180.421 364.443 180.233C367.179 180.04 369.02 181.596 369.351 181.891C369.02 181.601 367.179 180.04 364.443 180.233Z" fill="white"/>
<path d="M364.443 180.233C361.773 180.421 360.186 182.146 359.881 182.491C360.186 182.146 361.768 180.421 364.443 180.233ZM364.443 180.233C367.179 180.04 369.02 181.596 369.351 181.891C369.02 181.601 367.179 180.04 364.443 180.233ZM373.506 129.522C372.57 131.556 350.762 178.555 324.834 191.051C348.24 202.128 361.59 222.863 358.101 260.097C357.298 268.788 355.635 276.519 353.188 283.4C368.873 287.449 389.756 289.203 390.213 270.024C390.549 255.982 390.478 226.204 390.478 226.204H411.06L390.773 161.751C389.705 157.591 380.723 129.451 355.07 112.973C362.567 117.789 368.639 123.602 373.506 129.522ZM369.265 192.241C368.634 197.464 364.906 201.309 360.944 200.831C356.977 200.353 354.277 195.73 354.907 190.507C355.538 185.284 359.266 181.439 363.228 181.917C367.195 182.395 369.895 187.018 369.265 192.241Z" stroke="black" stroke-width="2.03435" stroke-miterlimit="10"/>
<path d="M349.852 109.922C350.401 110.212 350.945 110.512 351.485 110.812C350.945 110.507 350.401 110.212 349.852 109.922Z" fill="#30C9E2" stroke="black" stroke-width="2.03435" stroke-miterlimit="10"/>
<path d="M318.889 101.258C319.418 101.293 319.952 101.329 320.476 101.375" stroke="black" stroke-width="2.03435" stroke-miterlimit="10"/>
<path d="M321.539 101.488C322.043 101.539 322.551 101.585 323.055 101.646C322.556 101.585 322.048 101.539 321.539 101.488Z" fill="#30C9E2" stroke="black" stroke-width="2.03435" stroke-miterlimit="10"/>
<path d="M312.384 101.023C313.315 101.023 314.23 101.039 315.141 101.064" stroke="black" stroke-width="2.03435" stroke-miterlimit="10"/>
<path d="M324.097 101.789C324.59 101.855 325.089 101.916 325.577 101.987C325.089 101.916 324.596 101.85 324.097 101.789Z" fill="#30C9E2" stroke="black" stroke-width="2.03435" stroke-miterlimit="10"/>
<path d="M316.062 101.109C316.657 101.135 317.252 101.155 317.836 101.186C317.252 101.15 316.657 101.13 316.062 101.109Z" fill="#30C9E2" stroke="black" stroke-width="2.03435" stroke-miterlimit="10"/>
<path d="M328.984 102.586C329.473 102.683 329.961 102.774 330.439 102.876" stroke="black" stroke-width="2.03435" stroke-miterlimit="10"/>
<path d="M332.158 103.27C331.889 103.204 331.614 103.143 331.339 103.082C331.614 103.143 331.889 103.209 332.158 103.27Z" fill="#30C9E2" stroke="black" stroke-width="2.03435" stroke-miterlimit="10"/>
<path d="M324.84 191.05C314.653 195.958 303.835 195.541 293.399 184.978C276.295 167.666 260.859 187.272 271.916 205.835C289.03 234.575 302.869 253.485 282.556 288.018C274.667 301.424 269.373 319.489 280.242 333.47C301.216 330.002 318.869 323.878 332.092 313.345C330.454 309.48 329.397 305.264 329.03 300.605C328.196 290.037 336.12 277.663 336.12 277.663C336.135 277.668 343.718 280.958 353.203 283.405C355.65 276.524 357.313 268.793 358.116 260.101C361.605 222.868 348.255 202.133 324.85 191.056L324.84 191.05ZM319.265 268.203C313.707 264.709 308.707 261.185 304.247 257.772C308.707 261.18 313.707 264.709 319.265 268.203Z" fill="white"/>
<path d="M319.265 268.203C313.707 264.709 308.707 261.185 304.247 257.772C308.707 261.18 313.707 264.709 319.265 268.203ZM319.265 268.203C325.14 271.895 330.785 275.018 336.044 277.658M324.84 191.05C314.653 195.958 303.835 195.541 293.399 184.978C276.295 167.666 260.859 187.272 271.916 205.835C289.03 234.575 302.869 253.485 282.556 288.018C274.667 301.424 269.373 319.489 280.242 333.47C301.216 330.002 318.869 323.878 332.092 313.345C330.454 309.48 329.397 305.264 329.03 300.605C328.196 290.037 336.12 277.663 336.12 277.663C336.135 277.668 343.718 280.958 353.203 283.405C355.65 276.524 357.313 268.793 358.116 260.101C361.605 222.868 348.255 202.133 324.85 191.056L324.84 191.05Z" stroke="black" stroke-width="2.03435" stroke-miterlimit="10"/>
<path d="M326.574 102.156C327.062 102.238 327.556 102.314 328.039 102.4" stroke="black" stroke-width="2.03435" stroke-miterlimit="10"/>
<path d="M363.233 181.923C359.266 181.445 355.543 185.29 354.913 190.513C354.282 195.736 356.983 200.359 360.95 200.837C364.917 201.315 368.639 197.47 369.27 192.247C369.901 187.024 367.2 182.401 363.233 181.923Z" fill="white" stroke="black" stroke-width="2.03435" stroke-miterlimit="10"/>
<path d="M94.0073 104.577C94.6634 104.374 95.3246 104.18 95.9959 103.992" stroke="black" stroke-width="2.03435" stroke-miterlimit="10"/>
<path d="M76.4814 112.616C76.9036 112.352 77.3308 112.088 77.7631 111.828" stroke="black" stroke-width="2.03435" stroke-miterlimit="10"/>
<path d="M105.624 101.959C106.346 101.852 107.073 101.756 107.81 101.664" stroke="black" stroke-width="2.03435" stroke-miterlimit="10"/>
<path d="M73.2417 114.777C73.5316 114.574 73.8215 114.37 74.1165 114.172C73.8215 114.375 73.5316 114.574 73.2417 114.777Z" fill="#30C9E2"/>
<path d="M73.2417 114.777C73.5316 114.574 73.8215 114.37 74.1165 114.172C73.8215 114.375 73.5316 114.574 73.2417 114.777Z" stroke="black" stroke-width="2.03435" stroke-miterlimit="10"/>
<path d="M199.315 176.004C198.161 160.105 192.414 145.478 183.392 133.445C192.414 145.473 198.161 160.1 199.315 176.004Z" fill="#30C9E2"/>
<path d="M199.315 176.004C198.161 160.105 192.414 145.478 183.392 133.445C192.414 145.473 198.161 160.1 199.315 176.004Z" stroke="black" stroke-width="2.03435" stroke-miterlimit="10"/>
<path d="M74.6812 113.785C75.0982 113.505 75.5152 113.23 75.9374 112.961C75.5152 113.236 75.0931 113.51 74.6812 113.785Z" fill="#30C9E2"/>
<path d="M74.6812 113.785C75.0982 113.505 75.5152 113.23 75.9374 112.961C75.5152 113.236 75.0931 113.51 74.6812 113.785Z" stroke="black" stroke-width="2.03435" stroke-miterlimit="10"/>
<path d="M96.0669 103.977C96.7281 103.794 97.3943 103.621 98.0707 103.453" stroke="black" stroke-width="2.03435" stroke-miterlimit="10"/>
<path d="M71.5889 115.98C71.8686 115.771 72.1483 115.563 72.4331 115.359" stroke="black" stroke-width="2.03435" stroke-miterlimit="10"/>
<path d="M98.4268 103.359C99.0981 103.196 99.7796 103.038 100.466 102.891C99.7796 103.038 99.1032 103.196 98.4268 103.359Z" fill="#30C9E2"/>
<path d="M98.4268 103.359C99.0981 103.196 99.7796 103.038 100.466 102.891C99.7796 103.038 99.1032 103.196 98.4268 103.359Z" stroke="black" stroke-width="2.03435" stroke-miterlimit="10"/>
<path d="M70.0376 117.164C70.3326 116.93 70.6276 116.702 70.9327 116.473C70.6326 116.702 70.3326 116.935 70.0376 117.164Z" fill="#30C9E2"/>
<path d="M70.0376 117.164C70.3326 116.93 70.6276 116.702 70.9327 116.473C70.6326 116.702 70.3326 116.935 70.0376 117.164Z" stroke="black" stroke-width="2.03435" stroke-miterlimit="10"/>
<path d="M81.8369 109.55C82.3608 109.28 82.8897 109.011 83.4288 108.746C82.8897 109.005 82.3608 109.275 81.8369 109.55Z" fill="#30C9E2"/>
<path d="M81.8369 109.55C82.3608 109.28 82.8897 109.011 83.4288 108.746C82.8897 109.005 82.3608 109.275 81.8369 109.55Z" stroke="black" stroke-width="2.03435" stroke-miterlimit="10"/>
<path d="M103.055 102.377C103.772 102.244 104.5 102.128 105.232 102.016" stroke="black" stroke-width="2.03435" stroke-miterlimit="10"/>
<path d="M68.7202 118.226C68.883 118.094 69.0457 117.956 69.2085 117.824C69.0457 117.956 68.883 118.089 68.7202 118.226Z" fill="#30C9E2"/>
<path d="M68.7202 118.226C68.883 118.094 69.0457 117.956 69.2085 117.824C69.0457 117.956 68.883 118.089 68.7202 118.226Z" stroke="black" stroke-width="2.03435" stroke-miterlimit="10"/>
<path d="M78.2104 111.558C78.6173 111.319 79.0242 111.08 79.4361 110.852C79.0242 111.086 78.6173 111.319 78.2104 111.558Z" fill="#30C9E2"/>
<path d="M78.2104 111.558C78.6173 111.319 79.0242 111.08 79.4361 110.852C79.0242 111.086 78.6173 111.319 78.2104 111.558Z" stroke="black" stroke-width="2.03435" stroke-miterlimit="10"/>
<path d="M100.858 102.81C101.57 102.663 102.287 102.515 103.014 102.383C102.287 102.515 101.57 102.657 100.858 102.81Z" fill="#30C9E2"/>
<path d="M100.858 102.81C101.57 102.663 102.287 102.515 103.014 102.383C102.287 102.515 101.57 102.657 100.858 102.81Z" stroke="black" stroke-width="2.03435" stroke-miterlimit="10"/>
<path d="M85.5801 107.744C86.1395 107.495 86.7041 107.251 87.2737 107.012" stroke="black" stroke-width="2.03435" stroke-miterlimit="10"/>
<path d="M67.1436 119.556C67.2504 119.464 67.3572 119.373 67.464 119.281" stroke="black" stroke-width="2.03435" stroke-miterlimit="10"/>
<path d="M87.6753 106.85C88.2703 106.606 88.8705 106.367 89.4757 106.133C88.8654 106.362 88.2703 106.606 87.6753 106.85Z" fill="#30C9E2"/>
<path d="M87.6753 106.85C88.2703 106.606 88.8705 106.367 89.4757 106.133C88.8654 106.362 88.2703 106.606 87.6753 106.85Z" stroke="black" stroke-width="2.03435" stroke-miterlimit="10"/>
<path d="M79.894 110.593C80.3823 110.318 80.8807 110.054 81.3791 109.789C80.8756 110.054 80.3823 110.323 79.894 110.593Z" fill="#30C9E2"/>
<path d="M79.894 110.593C80.3823 110.318 80.8807 110.054 81.3791 109.789C80.8756 110.054 80.3823 110.323 79.894 110.593Z" stroke="black" stroke-width="2.03435" stroke-miterlimit="10"/>
<path d="M89.603 106.085C90.193 105.861 90.7931 105.647 91.3933 105.434C90.788 105.642 90.193 105.861 89.603 106.085Z" fill="#30C9E2"/>
<path d="M89.603 106.085C90.193 105.861 90.7931 105.647 91.3933 105.434C90.788 105.642 90.193 105.861 89.603 106.085Z" stroke="black" stroke-width="2.03435" stroke-miterlimit="10"/>
<path d="M83.6626 108.635C84.1661 108.391 84.6798 108.152 85.1934 107.918" stroke="black" stroke-width="2.03435" stroke-miterlimit="10"/>
<path d="M64.626 121.847L64.7124 121.766" stroke="black" stroke-width="2.03435" stroke-miterlimit="10"/>
<path d="M91.7544 105.315C92.3698 105.101 92.9953 104.898 93.626 104.699" stroke="black" stroke-width="2.03435" stroke-miterlimit="10"/>
<path d="M183.391 133.45C168.627 113.762 145.105 101.027 118.603 101.027C145.105 101.027 168.627 113.767 183.391 133.45Z" fill="#30C9E2"/>
<path d="M183.391 133.45C168.627 113.762 145.105 101.027 118.603 101.027C145.105 101.027 168.627 113.767 183.391 133.45Z" stroke="black" stroke-width="2.03435" stroke-miterlimit="10"/>
<path d="M199.315 176.008C199.458 177.971 199.534 179.96 199.534 181.958C199.534 181.958 199.534 181.968 199.534 181.974C199.534 181.974 199.534 181.963 199.534 181.958C199.534 179.954 199.458 177.971 199.315 176.008Z" fill="#30C9E2"/>
<path d="M199.534 181.958C199.534 179.96 199.458 177.971 199.315 176.008C199.458 177.971 199.534 179.954 199.534 181.958ZM199.534 181.958C199.534 181.958 199.534 181.968 199.534 181.974C199.534 181.974 199.534 181.963 199.534 181.958Z" stroke="black" stroke-width="2.03435" stroke-miterlimit="10"/>
<path d="M199.458 184.299C199.463 184.177 199.473 184.054 199.478 183.938C199.473 184.06 199.463 184.177 199.458 184.299Z" fill="#30C9E2"/>
<path d="M199.458 184.299C199.463 184.177 199.473 184.054 199.478 183.938C199.473 184.06 199.463 184.177 199.458 184.299Z" stroke="black" stroke-width="2.03435" stroke-miterlimit="10"/>
<path d="M198.619 191.021C198.629 190.95 198.644 190.884 198.654 190.812" stroke="black" stroke-width="2.03435" stroke-miterlimit="10"/>
<path d="M199.509 183.253C199.509 183.146 199.519 183.039 199.519 182.938C199.519 183.044 199.514 183.151 199.509 183.253Z" fill="#30C9E2"/>
<path d="M199.509 183.253C199.509 183.146 199.519 183.039 199.519 182.938C199.519 183.044 199.514 183.151 199.509 183.253Z" stroke="black" stroke-width="2.03435" stroke-miterlimit="10"/>
<path d="M198.405 192.152C198.405 192.152 198.41 192.11 198.415 192.09C198.415 192.11 198.41 192.131 198.405 192.152Z" fill="#30C9E2"/>
<path d="M198.405 192.152C198.405 192.152 198.41 192.11 198.415 192.09C198.415 192.11 198.41 192.131 198.405 192.152Z" stroke="black" stroke-width="2.03435" stroke-miterlimit="10"/>
<path d="M199.29 186.368C199.3 186.277 199.305 186.185 199.315 186.094" stroke="black" stroke-width="2.03435" stroke-miterlimit="10"/>
<path d="M116.131 101.063C116.95 101.043 117.769 101.027 118.603 101.027C117.769 101.027 116.945 101.043 116.131 101.063Z" fill="#30C9E2"/>
<path d="M116.131 101.063C116.95 101.043 117.769 101.027 118.603 101.027C117.769 101.027 116.945 101.043 116.131 101.063Z" stroke="black" stroke-width="2.03435" stroke-miterlimit="10"/>
<path d="M199 188.704C199.01 188.648 199.015 188.592 199.025 188.531C199.015 188.587 199.01 188.643 199 188.704Z" fill="#30C9E2"/>
<path d="M199 188.704C199.01 188.648 199.015 188.592 199.025 188.531C199.015 188.587 199.01 188.643 199 188.704Z" stroke="black" stroke-width="2.03435" stroke-miterlimit="10"/>
<path d="M198.817 189.886C198.832 189.81 198.842 189.729 198.858 189.652C198.847 189.729 198.832 189.81 198.817 189.886Z" fill="#30C9E2"/>
<path d="M198.817 189.886C198.832 189.81 198.842 189.729 198.858 189.652C198.847 189.729 198.832 189.81 198.817 189.886Z" stroke="black" stroke-width="2.03435" stroke-miterlimit="10"/>
<path d="M108.228 101.614C108.99 101.528 109.763 101.441 110.542 101.375C109.763 101.446 108.99 101.528 108.228 101.614Z" fill="#30C9E2"/>
<path d="M108.228 101.614C108.99 101.528 109.763 101.441 110.542 101.375C109.763 101.446 108.99 101.528 108.228 101.614Z" stroke="black" stroke-width="2.03435" stroke-miterlimit="10"/>
<path d="M110.567 101.372C111.34 101.306 112.123 101.25 112.911 101.199C112.123 101.25 111.34 101.301 110.567 101.372Z" fill="#30C9E2"/>
<path d="M110.567 101.372C111.34 101.306 112.123 101.25 112.911 101.199C112.123 101.25 111.34 101.301 110.567 101.372Z" stroke="black" stroke-width="2.03435" stroke-miterlimit="10"/>
<path d="M113.344 101.172C114.112 101.126 114.89 101.096 115.673 101.07" stroke="black" stroke-width="2.03435" stroke-miterlimit="10"/>
<path d="M199.387 185.335C199.397 185.218 199.407 185.101 199.412 184.984C199.402 185.101 199.397 185.218 199.387 185.335Z" fill="#30C9E2"/>
<path d="M199.387 185.335C199.397 185.218 199.407 185.101 199.412 184.984C199.402 185.101 199.397 185.218 199.387 185.335Z" stroke="black" stroke-width="2.03435" stroke-miterlimit="10"/>
<path d="M183.392 212.64V242.585C186.143 232.154 189.688 221.957 192.755 212.492C189.159 212.574 185.985 212.645 183.392 212.64Z" fill="#30C9E2"/>
<path d="M183.392 212.64V242.585C186.143 232.154 189.688 221.957 192.755 212.492C189.159 212.574 185.985 212.645 183.392 212.64Z" stroke="#30C9E2" stroke-width="2.03435" stroke-miterlimit="10"/>
<path d="M51.342 137.934C64.2957 153.278 83.1541 149.174 92.3189 149.174C113.873 150.756 89.5369 197.703 103.859 205.215C108.217 207.499 113.817 206.553 119.905 204.386V184.872H123.8C122.254 184.663 120.937 184.612 119.905 184.612V116.182C118.872 110.608 115.902 104.378 108.207 101.621C108.075 101.636 107.938 101.652 107.805 101.667C107.068 101.758 106.341 101.855 105.618 101.962C105.486 101.982 105.359 102.003 105.227 102.023C104.494 102.135 103.767 102.252 103.05 102.384C103.035 102.384 103.02 102.384 103.009 102.389C102.282 102.521 101.565 102.664 100.853 102.816C100.721 102.842 100.594 102.872 100.461 102.898C99.7747 103.045 99.0983 103.203 98.4219 103.366C98.2998 103.396 98.1829 103.427 98.0659 103.457C97.3895 103.625 96.7232 103.798 96.0621 103.981C96.0366 103.986 96.0163 103.991 95.9909 104.001C95.3195 104.189 94.6584 104.383 94.0023 104.586C93.8751 104.627 93.748 104.662 93.6208 104.703C92.9902 104.901 92.3646 105.105 91.7492 105.319C91.6323 105.359 91.5102 105.4 91.3932 105.441C90.788 105.649 90.193 105.868 89.603 106.092C89.5623 106.107 89.5165 106.122 89.4708 106.137C88.8605 106.366 88.2654 106.61 87.6704 106.854C87.5381 106.91 87.4008 106.966 87.2686 107.022C86.699 107.261 86.1344 107.505 85.575 107.755C85.4478 107.811 85.3156 107.872 85.1885 107.928C84.6748 108.162 84.1611 108.401 83.6576 108.645C83.5813 108.68 83.5 108.721 83.4237 108.757C82.8846 109.016 82.3556 109.286 81.8318 109.56C81.6792 109.642 81.5266 109.718 81.3741 109.799C80.8706 110.064 80.3772 110.333 79.889 110.603C79.7364 110.689 79.5838 110.776 79.4313 110.862C79.0193 111.096 78.6124 111.33 78.2056 111.569C78.053 111.656 77.9055 111.747 77.7529 111.834C77.3206 112.093 76.8934 112.357 76.4713 112.622C76.2882 112.734 76.1102 112.851 75.9322 112.968C75.5101 113.237 75.0879 113.517 74.676 113.792C74.4878 113.919 74.2996 114.051 74.1064 114.178C73.8114 114.382 73.5215 114.58 73.2316 114.783C72.962 114.977 72.6925 115.165 72.428 115.358C72.1432 115.561 71.8635 115.77 71.5838 115.979C71.3651 116.141 71.1464 116.309 70.9277 116.472C70.6276 116.701 70.3276 116.935 70.0326 117.164C69.7528 117.382 69.4782 117.606 69.2036 117.83C69.0408 117.962 68.8781 118.094 68.7153 118.232C68.2932 118.582 67.8711 118.933 67.4591 119.289C67.3523 119.381 67.2455 119.472 67.1387 119.564C66.3046 120.286 65.496 121.024 64.7077 121.766L64.6212 121.848C59.159 127.02 54.7851 132.609 51.3369 137.934H51.342Z" fill="#30C9E2"/>
<path d="M51.342 137.934C64.2957 153.278 83.1541 149.174 92.3189 149.174C113.873 150.756 89.5369 197.703 103.859 205.215C108.217 207.499 113.817 206.553 119.905 204.386V184.872H123.8C122.254 184.663 120.937 184.612 119.905 184.612V116.182C118.872 110.608 115.902 104.378 108.207 101.621C108.075 101.636 107.938 101.652 107.805 101.667C107.068 101.758 106.341 101.855 105.618 101.962C105.486 101.982 105.359 102.003 105.227 102.023C104.494 102.135 103.767 102.252 103.05 102.384C103.035 102.384 103.02 102.384 103.009 102.389C102.282 102.521 101.565 102.664 100.853 102.816C100.721 102.842 100.594 102.872 100.461 102.898C99.7747 103.045 99.0983 103.203 98.4219 103.366C98.2998 103.396 98.1829 103.427 98.0659 103.457C97.3895 103.625 96.7232 103.798 96.0621 103.981C96.0366 103.986 96.0163 103.991 95.9909 104.001C95.3195 104.189 94.6584 104.383 94.0023 104.586C93.8751 104.627 93.748 104.662 93.6208 104.703C92.9902 104.901 92.3646 105.105 91.7492 105.319C91.6323 105.359 91.5102 105.4 91.3932 105.441C90.788 105.649 90.193 105.868 89.603 106.092C89.5623 106.107 89.5165 106.122 89.4708 106.137C88.8605 106.366 88.2654 106.61 87.6704 106.854C87.5381 106.91 87.4008 106.966 87.2686 107.022C86.699 107.261 86.1344 107.505 85.575 107.755C85.4478 107.811 85.3156 107.872 85.1885 107.928C84.6748 108.162 84.1611 108.401 83.6576 108.645C83.5813 108.68 83.5 108.721 83.4237 108.757C82.8846 109.016 82.3556 109.286 81.8318 109.56C81.6792 109.642 81.5266 109.718 81.3741 109.799C80.8706 110.064 80.3772 110.333 79.889 110.603C79.7364 110.689 79.5838 110.776 79.4313 110.862C79.0193 111.096 78.6124 111.33 78.2056 111.569C78.053 111.656 77.9055 111.747 77.7529 111.834C77.3206 112.093 76.8934 112.357 76.4713 112.622C76.2882 112.734 76.1102 112.851 75.9322 112.968C75.5101 113.237 75.0879 113.517 74.676 113.792C74.4878 113.919 74.2996 114.051 74.1064 114.178C73.8114 114.382 73.5215 114.58 73.2316 114.783C72.962 114.977 72.6925 115.165 72.428 115.358C72.1432 115.561 71.8635 115.77 71.5838 115.979C71.3651 116.141 71.1464 116.309 70.9277 116.472C70.6276 116.701 70.3275 116.935 70.0326 117.164C69.7528 117.382 69.4782 117.606 69.2036 117.83C69.0408 117.962 68.8781 118.094 68.7153 118.232C68.2932 118.582 67.8711 118.933 67.4591 119.289C67.3523 119.381 67.2455 119.472 67.1387 119.564C66.3046 120.286 65.496 121.024 64.7077 121.766L64.6212 121.848C59.159 127.02 54.7851 132.609 51.3369 137.934H51.342Z" stroke="#30C9E2" stroke-width="2.03435" stroke-miterlimit="10"/>
<path d="M183.392 175.846C187.338 175.841 192.902 176.014 199.315 176.004C198.161 160.105 192.414 145.478 183.392 133.445V175.841V175.846Z" fill="#30C9E2"/>
<path d="M183.392 175.846C187.338 175.841 192.902 176.014 199.315 176.004C198.161 160.105 192.414 145.478 183.392 133.445V175.841V175.846Z" stroke="#30C9E2" stroke-width="2.03435" stroke-miterlimit="10"/>
<path d="M192.754 212.493C195.114 205.205 197.194 198.344 198.405 192.145C198.405 192.124 198.41 192.104 198.415 192.084C198.486 191.728 198.552 191.372 198.613 191.016C198.624 190.944 198.639 190.878 198.649 190.807C198.705 190.497 198.756 190.187 198.807 189.881C198.822 189.805 198.832 189.724 198.847 189.647C198.898 189.332 198.944 189.017 198.99 188.701C199 188.646 199.005 188.59 199.015 188.529C199.122 187.796 199.208 187.074 199.285 186.362C199.295 186.27 199.3 186.179 199.31 186.087C199.336 185.833 199.356 185.579 199.381 185.33C199.392 185.213 199.402 185.096 199.407 184.979C199.422 184.75 199.437 184.526 199.453 184.302C199.458 184.18 199.468 184.058 199.473 183.941C199.483 183.712 199.493 183.483 199.503 183.255C199.503 183.148 199.514 183.041 199.514 182.939C199.524 182.614 199.529 182.293 199.529 181.973C199.529 181.973 199.529 181.963 199.529 181.958C199.529 179.954 199.453 177.97 199.31 176.007C192.897 176.012 187.333 175.839 183.386 175.849V133.454C168.622 113.766 145.1 101.031 118.597 101.031C117.763 101.031 116.939 101.047 116.126 101.067C115.973 101.067 115.82 101.072 115.668 101.077C114.885 101.102 114.107 101.133 113.339 101.179C113.191 101.189 113.049 101.199 112.901 101.204C112.113 101.255 111.33 101.306 110.557 101.377C110.546 101.377 110.541 101.377 110.531 101.377C109.753 101.448 108.98 101.53 108.217 101.616C108.212 101.616 108.202 101.616 108.197 101.616C115.892 104.373 118.862 110.603 119.894 116.177V184.607C120.927 184.607 122.244 184.658 123.79 184.867H119.894V204.381C133.616 199.494 149.83 188.376 159.966 193.914C160.983 194.469 163.261 196.04 164.96 198.924C174.654 215.387 142.608 240.293 149.453 258.19C151.452 263.413 157.626 270.294 178.758 273.676C178.707 263.403 180.655 252.88 183.376 242.586V212.641C185.97 212.646 189.143 212.575 192.739 212.493H192.754Z" fill="#1E75FF" stroke="#1E75FF" stroke-width="2.03435" stroke-miterlimit="10"/>
<path d="M337.315 104.68C337.549 104.751 337.778 104.832 338.012 104.909" stroke="black" stroke-width="2.03435" stroke-miterlimit="10"/>
<path d="M332.789 103.414C333.074 103.485 333.348 103.562 333.633 103.633C333.354 103.562 333.074 103.48 332.789 103.414Z" fill="#30C9E2" stroke="black" stroke-width="2.03435" stroke-miterlimit="10"/>
<path d="M335.083 104.016C335.342 104.087 335.591 104.168 335.85 104.239C335.596 104.163 335.342 104.087 335.083 104.016Z" fill="#30C9E2" stroke="black" stroke-width="2.03435" stroke-miterlimit="10"/>
<path d="M341.628 106.18C341.811 106.251 341.994 106.327 342.177 106.398" stroke="black" stroke-width="2.03435" stroke-miterlimit="10"/>
<path d="M339.502 105.406C339.716 105.477 339.919 105.559 340.128 105.635C339.919 105.559 339.71 105.483 339.502 105.406Z" fill="#30C9E2" stroke="black" stroke-width="2.03435" stroke-miterlimit="10"/>
<path d="M353.305 111.875C353.331 111.89 353.356 111.906 353.381 111.921" stroke="black" stroke-width="2.03435" stroke-miterlimit="10"/>
<path d="M351.484 110.812C351.535 110.843 351.586 110.874 351.642 110.904C351.591 110.874 351.54 110.843 351.484 110.812Z" fill="#30C9E2" stroke="black" stroke-width="2.03435" stroke-miterlimit="10"/>
<path d="M343.703 107.008C343.861 107.074 344.018 107.145 344.176 107.211C344.018 107.145 343.866 107.074 343.703 107.008Z" fill="#30C9E2" stroke="black" stroke-width="2.03435" stroke-miterlimit="10"/>
<path d="M349.618 109.797C349.7 109.838 349.776 109.883 349.857 109.924" stroke="black" stroke-width="2.03435" stroke-miterlimit="10"/>
<path d="M250.566 288.568C256.191 264.359 246.324 237.251 238.797 214.207C246.324 237.251 256.191 264.364 250.566 288.568Z" fill="#30C9E2" stroke="black" stroke-width="2.03435" stroke-miterlimit="10"/>
<path d="M345.728 107.887C345.86 107.948 345.992 108.009 346.124 108.07C345.992 108.009 345.86 107.943 345.728 107.887Z" fill="#30C9E2" stroke="black" stroke-width="2.03435" stroke-miterlimit="10"/>
<path d="M231.896 173.475C234.194 151.392 245.378 131.954 261.8 118.781C245.373 131.949 234.194 151.392 231.896 173.475Z" fill="#30C9E2" stroke="black" stroke-width="2.03435" stroke-miterlimit="10"/>
<path d="M347.695 108.82C347.802 108.871 347.904 108.927 348.011 108.978" stroke="black" stroke-width="2.03435" stroke-miterlimit="10"/>
<path d="M323.055 101.648C323.406 101.689 323.751 101.74 324.097 101.791C323.751 101.745 323.406 101.694 323.055 101.648Z" fill="#30C9E2" stroke="black" stroke-width="2.03435" stroke-miterlimit="10"/>
<path d="M317.841 101.184C318.197 101.204 318.543 101.234 318.894 101.26" stroke="black" stroke-width="2.03435" stroke-miterlimit="10"/>
<path d="M330.439 102.871C330.745 102.937 331.04 103.008 331.34 103.08C331.04 103.013 330.745 102.937 330.439 102.871Z" fill="#30C9E2" stroke="black" stroke-width="2.03435" stroke-miterlimit="10"/>
<path d="M315.141 101.066C315.451 101.077 315.751 101.097 316.062 101.107C315.757 101.097 315.451 101.077 315.141 101.066Z" fill="#30C9E2" stroke="black" stroke-width="2.03435" stroke-miterlimit="10"/>
<path d="M312.384 101.023C293.241 101.023 275.654 107.671 261.8 118.783C275.654 107.676 293.241 101.023 312.384 101.023Z" fill="#30C9E2" stroke="black" stroke-width="2.03435" stroke-miterlimit="10"/>
<path d="M320.476 101.375C320.837 101.406 321.183 101.451 321.539 101.487C321.183 101.451 320.832 101.411 320.476 101.375Z" fill="#30C9E2" stroke="black" stroke-width="2.03435" stroke-miterlimit="10"/>
<path d="M325.572 101.984C325.907 102.035 326.238 102.096 326.569 102.147C326.238 102.091 325.907 102.03 325.572 101.984Z" fill="#30C9E2" stroke="black" stroke-width="2.03435" stroke-miterlimit="10"/>
<path d="M328.034 102.398C328.354 102.454 328.664 102.526 328.985 102.587C328.669 102.526 328.354 102.459 328.034 102.398Z" fill="#30C9E2" stroke="black" stroke-width="2.03435" stroke-miterlimit="10"/>
<path d="M215.529 329.927C236.849 318.601 246.935 304.193 250.566 288.574C246.935 304.193 236.854 318.601 215.529 329.927Z" fill="#30C9E2" stroke="black" stroke-width="2.03435" stroke-miterlimit="10"/>
<path d="M231.453 181.96C231.453 190.865 234.795 201.963 238.792 214.209C234.789 201.963 231.453 190.865 231.453 181.96C231.453 179.096 231.606 176.264 231.896 173.477C231.606 176.264 231.453 179.091 231.453 181.96Z" fill="#30C9E2"/>
<path d="M231.453 181.96C231.453 190.865 234.795 201.963 238.792 214.209C234.789 201.963 231.453 190.865 231.453 181.96ZM231.453 181.96C231.453 179.096 231.606 176.264 231.896 173.477C231.606 176.264 231.453 179.091 231.453 181.96Z" stroke="black" stroke-width="2.03435" stroke-miterlimit="10"/>
<path d="M210.575 332.409C210.575 332.409 210.585 332.409 210.59 332.404C211.043 332.19 211.486 331.977 211.928 331.758C211.48 331.977 211.033 332.195 210.575 332.409Z" fill="#30C9E2" stroke="black" stroke-width="2.03435" stroke-miterlimit="10"/>
<path d="M328.441 382.763C321.254 363.819 301.964 353.413 286.096 340.835C283.766 338.989 281.829 337.026 280.232 334.977C270.273 336.624 259.578 337.677 248.247 338.323V350.046C248.638 350.326 249.035 350.605 249.416 350.885C251.359 352.304 253.195 353.713 254.929 355.117C283.212 378.018 283.858 398.479 283.858 398.479H330.943V393.403C330.943 393.403 330.734 388.816 328.441 382.763Z" fill="#30C9E2"/>
<path d="M328.441 382.763C321.254 363.819 301.964 353.413 286.096 340.835C283.766 338.989 281.829 337.026 280.232 334.977C270.273 336.624 259.578 337.677 248.247 338.323V350.046C248.638 350.326 249.035 350.605 249.416 350.885C251.359 352.304 253.195 353.713 254.929 355.117C283.212 378.018 283.858 398.479 283.858 398.479H330.943V393.403C330.943 393.403 330.734 388.816 328.441 382.763Z" stroke="#30C9E2" stroke-width="2.03435" stroke-miterlimit="10"/>
<path d="M337.096 123.035C340.189 154.715 326.909 173.721 305.671 184.482C312.613 186.145 319.031 188.302 324.84 191.053C350.762 178.562 372.575 131.559 373.511 129.524C368.644 123.604 362.572 117.791 355.075 112.975C354.521 112.619 353.956 112.268 353.387 111.922C353.361 111.907 353.336 111.892 353.31 111.876C352.766 111.546 352.207 111.225 351.647 110.905C351.596 110.874 351.545 110.844 351.489 110.813C350.955 110.508 350.406 110.213 349.857 109.923C349.776 109.883 349.699 109.837 349.618 109.796C349.089 109.517 348.555 109.247 348.016 108.983C347.909 108.932 347.807 108.876 347.701 108.825C347.182 108.571 346.653 108.326 346.124 108.082C345.992 108.021 345.859 107.955 345.727 107.899C345.219 107.665 344.695 107.447 344.176 107.223C344.018 107.157 343.866 107.085 343.703 107.019C343.2 106.811 342.691 106.607 342.177 106.409C341.994 106.338 341.811 106.262 341.628 106.19C341.135 106.002 340.631 105.819 340.128 105.641C339.919 105.565 339.711 105.489 339.502 105.412C339.014 105.244 338.515 105.082 338.017 104.919C337.783 104.843 337.554 104.761 337.32 104.69C336.837 104.537 336.344 104.395 335.85 104.253C335.596 104.176 335.342 104.1 335.082 104.029C334.604 103.897 334.116 103.769 333.633 103.647C333.353 103.576 333.074 103.495 332.789 103.429C332.58 103.378 332.367 103.332 332.158 103.281C334.696 109.089 336.379 115.65 337.096 123.045V123.035Z" fill="#2B388F" stroke="#2B388F" stroke-width="2.03435" stroke-miterlimit="10"/>
<path d="M248.526 288.569C268.117 283.539 283.883 273.352 283.883 252.907C283.883 227.447 261.403 217.748 236.757 214.203C244.284 237.247 254.151 264.36 248.526 288.564V288.569Z" fill="#2B388F" stroke="#2B388F" stroke-width="2.03435" stroke-miterlimit="10"/>
<path d="M231.896 173.475C251.532 169.747 268.916 160.735 268.916 139.349C268.916 130.601 266.24 123.903 261.8 118.781C245.373 131.949 234.194 151.392 231.896 173.475Z" fill="#2B388F" stroke="#2B388F" stroke-width="2.03435" stroke-miterlimit="10"/>
<path d="M282.551 288.023C302.863 253.49 289.03 234.581 271.911 205.841C260.854 187.277 276.29 167.671 293.394 184.984C303.83 195.547 314.647 195.964 324.834 191.056C319.026 188.31 312.608 186.153 305.666 184.485C326.904 173.724 340.184 154.718 337.091 123.038C336.379 115.638 334.691 109.082 332.153 103.274C331.883 103.208 331.609 103.147 331.334 103.086C331.034 103.02 330.739 102.944 330.434 102.877C329.956 102.776 329.468 102.684 328.979 102.588C328.664 102.527 328.349 102.46 328.028 102.399C327.545 102.313 327.052 102.237 326.564 102.155C326.233 102.099 325.902 102.038 325.567 101.992C325.079 101.921 324.585 101.855 324.087 101.794C323.741 101.748 323.395 101.697 323.044 101.652C322.546 101.591 322.037 101.545 321.529 101.494C321.173 101.458 320.822 101.418 320.466 101.382C319.942 101.336 319.408 101.301 318.879 101.265C318.528 101.24 318.182 101.209 317.826 101.189C317.241 101.153 316.646 101.133 316.051 101.113C315.746 101.102 315.441 101.082 315.131 101.072C314.22 101.047 313.305 101.031 312.374 101.031C293.231 101.031 275.644 107.678 261.79 118.791C266.23 123.913 268.905 130.611 268.905 139.358C268.905 160.739 251.522 169.757 231.885 173.485C231.595 176.272 231.443 179.099 231.443 181.968C231.443 190.873 234.784 201.971 238.782 214.217C263.423 217.757 285.907 227.461 285.907 252.921C285.907 273.366 270.146 283.553 250.55 288.583C246.919 304.202 236.839 318.61 215.514 329.936C216.668 330.551 217.838 331.162 219.053 331.762C219.496 331.981 219.938 332.194 220.386 332.413C220.386 332.413 220.396 332.413 220.401 332.418C230.141 337.051 238.39 341.817 245.368 346.552C246.354 347.218 247.3 347.889 248.236 348.555V336.833C259.562 336.187 270.263 335.134 280.221 333.486C269.353 319.505 274.652 301.44 282.535 288.034L282.551 288.023Z" fill="#1E75FF" stroke="#1E75FF" stroke-width="2.03435" stroke-miterlimit="10"/>
<path d="M220.401 332.397C219.949 332.183 219.511 331.965 219.069 331.746C219.506 331.965 219.954 332.178 220.401 332.397Z" fill="#30C9E2" stroke="black" stroke-width="2.03435" stroke-miterlimit="10"/>
<path d="M211.928 331.758C211.486 331.971 211.043 332.19 210.591 332.404C211.043 332.19 211.486 331.977 211.928 331.758Z" fill="#30C9E2" stroke="black" stroke-width="2.03435" stroke-miterlimit="10"/>
<path d="M215.53 329.927C215.53 329.927 215.519 329.922 215.514 329.922C215.514 329.922 215.504 329.922 215.499 329.927C215.499 329.927 215.509 329.932 215.514 329.937C215.514 329.937 215.524 329.937 215.53 329.932V329.927Z" fill="#30C9E2" stroke="black" stroke-width="2.03435" stroke-miterlimit="10"/>
<path d="M215.498 329.926C214.334 330.541 213.149 331.157 211.928 331.757C213.159 331.157 214.354 330.551 215.514 329.936C215.514 329.936 215.504 329.931 215.498 329.926Z" fill="#30C9E2" stroke="black" stroke-width="2.03435" stroke-miterlimit="10"/>
<path d="M215.529 329.926C215.529 329.926 215.519 329.926 215.514 329.931C215.514 329.931 215.524 329.931 215.529 329.926Z" fill="#30C9E2" stroke="black" stroke-width="2.03435" stroke-miterlimit="10"/>
<path d="M198.146 338.865C198.898 338.433 199.661 338.005 200.434 337.578" stroke="black" stroke-width="2.03435" stroke-miterlimit="10"/>
<path d="M191.524 342.879C189.413 344.227 187.404 345.59 185.492 346.953C187.409 345.585 189.418 344.227 191.524 342.879Z" fill="#30C9E2" stroke="black" stroke-width="2.03435" stroke-miterlimit="10"/>
<path d="M198.145 338.867C195.836 340.19 193.629 341.527 191.519 342.88C193.629 341.532 195.831 340.19 198.145 338.867Z" fill="#30C9E2" stroke="black" stroke-width="2.03435" stroke-miterlimit="10"/>
<path d="M211.928 331.75C213.159 331.15 214.354 330.545 215.514 329.93C214.354 330.545 213.159 331.155 211.928 331.75Z" fill="#30C9E2" stroke="black" stroke-width="2.03435" stroke-miterlimit="10"/>
<path d="M157.53 374.75C155.887 377.151 154.499 379.429 153.319 381.55C154.499 379.429 155.887 377.145 157.53 374.75Z" fill="#30C9E2" stroke="black" stroke-width="2.03435" stroke-miterlimit="10"/>
<path d="M153.319 381.547C152.729 382.61 152.195 383.632 151.707 384.609" stroke="black" stroke-width="2.03435" stroke-miterlimit="10"/>
<path d="M162.173 368.527C161.476 369.382 160.815 370.231 160.185 371.065C160.82 370.231 161.481 369.382 162.173 368.527Z" fill="#30C9E2" stroke="black" stroke-width="2.03435" stroke-miterlimit="10"/>
<path d="M151.707 384.602C150.735 386.555 149.957 388.335 149.342 389.891" stroke="black" stroke-width="2.03435" stroke-miterlimit="10"/>
<path d="M165.515 364.621C164.726 365.501 163.968 366.376 163.241 367.24" stroke="black" stroke-width="2.03435" stroke-miterlimit="10"/>
<path d="M210.575 332.404C210.575 332.404 210.585 332.404 210.591 332.398C210.591 332.398 210.58 332.398 210.575 332.404Z" fill="#30C9E2"/>
<path d="M200.434 337.581C203.623 335.821 207 334.092 210.575 332.404M210.575 332.404C210.575 332.404 210.585 332.404 210.591 332.398C210.591 332.398 210.58 332.398 210.575 332.404Z" stroke="black" stroke-width="2.03435" stroke-miterlimit="10"/>
<path d="M147.129 396.97C147.129 396.97 147.445 395.165 148.533 392.062" stroke="black" stroke-width="2.03435" stroke-miterlimit="10"/>
<path d="M175.086 355.176C174.049 356.086 173.047 356.997 172.081 357.907C173.047 357.002 174.044 356.091 175.086 355.176Z" fill="#30C9E2" stroke="black" stroke-width="2.03435" stroke-miterlimit="10"/>
<path d="M254.929 353.609C283.212 376.511 283.858 396.971 283.858 396.971" stroke="black" stroke-width="2.03435" stroke-miterlimit="10"/>
<path d="M249.421 349.379C251.364 350.798 253.2 352.207 254.934 353.61C253.205 352.207 251.369 350.798 249.421 349.379Z" fill="#30C9E2" stroke="black" stroke-width="2.03435" stroke-miterlimit="10"/>
<path d="M249.421 349.378C249.04 349.099 248.643 348.819 248.251 348.539" stroke="black" stroke-width="2.03435" stroke-miterlimit="10"/>
<path d="M248.251 348.543C247.315 347.877 246.364 347.21 245.383 346.539C246.369 347.205 247.315 347.877 248.251 348.543Z" fill="#30C9E2" stroke="black" stroke-width="2.03435" stroke-miterlimit="10"/>
<path d="M220.401 332.398C220.401 332.398 220.412 332.398 220.417 332.404C230.156 337.037 238.405 341.802 245.383 346.537C238.4 341.797 230.156 337.037 220.417 332.404C220.417 332.404 220.406 332.404 220.401 332.398Z" fill="#30C9E2"/>
<path d="M220.417 332.404C220.412 332.398 220.401 332.398 220.401 332.398C220.406 332.404 220.417 332.404 220.417 332.404ZM220.417 332.404C230.156 337.037 238.405 341.802 245.383 346.537C238.4 341.797 230.156 337.037 220.417 332.404Z" stroke="black" stroke-width="2.03435" stroke-miterlimit="10"/>
<path d="M215.514 329.931C216.663 330.546 217.848 331.151 219.064 331.752C217.853 331.151 216.679 330.541 215.524 329.926C215.524 329.926 215.514 329.926 215.509 329.931H215.514Z" fill="#30C9E2" stroke="black" stroke-width="2.03435" stroke-miterlimit="10"/>
<path d="M254.929 353.61C253.2 352.206 251.364 350.797 249.416 349.378C249.034 349.099 248.638 348.819 248.246 348.539V396.972H283.852C283.852 396.972 283.206 376.511 254.924 353.61H254.929Z" fill="#2B388F" stroke="#2B388F" stroke-width="2.03435" stroke-miterlimit="10"/>
<path d="M200.434 337.578C199.661 338.005 198.898 338.433 198.146 338.865C195.837 340.187 193.629 341.525 191.519 342.878C189.408 344.23 187.399 345.588 185.487 346.951C184.495 347.658 183.534 348.37 182.588 349.082V396.971H211.725L211.781 337.619C208.038 337.619 204.249 337.604 200.429 337.578H200.434Z" fill="#2B388F" stroke="#2B388F" stroke-width="2.03435" stroke-miterlimit="10"/>
<path d="M245.383 346.54C238.4 341.8 230.156 337.04 220.417 332.407C220.417 332.407 220.407 332.407 220.401 332.401C219.949 332.188 219.506 331.969 219.069 331.75C217.853 331.15 216.668 330.545 215.519 329.93C214.359 330.545 213.159 331.155 211.934 331.75C211.491 331.969 211.049 332.183 210.596 332.396C210.596 332.396 210.586 332.396 210.581 332.401C207.005 334.09 203.628 335.819 200.439 337.579C204.254 337.604 208.048 337.62 211.791 337.62L211.735 396.972H248.257V348.539C247.321 347.873 246.37 347.206 245.388 346.535L245.383 346.54Z" fill="#2B388F" stroke="#2B388F" stroke-width="2.03435" stroke-miterlimit="10"/>
<path d="M175.086 355.178C174.049 356.088 173.047 356.998 172.081 357.909C169.67 360.177 167.488 362.42 165.51 364.622C164.721 365.502 163.964 366.377 163.236 367.241C162.875 367.674 162.519 368.106 162.173 368.533C161.477 369.388 160.815 370.237 160.185 371.071C159.234 372.322 158.354 373.553 157.53 374.753C155.887 377.154 154.499 379.432 153.319 381.553C152.729 382.616 152.195 383.638 151.707 384.615C150.735 386.568 149.957 388.348 149.342 389.904C149.032 390.682 148.767 391.409 148.533 392.071C147.445 395.173 147.129 396.978 147.129 396.978H182.588V349.09C179.893 351.119 177.39 353.153 175.081 355.183L175.086 355.178Z" fill="#2B388F" stroke="#2B388F" stroke-width="2.03435" stroke-miterlimit="10"/>
</g>
<defs>
<clipPath id="clip0_187_2216">
<rect width="430.987" height="399.49" fill="white"/>
</clipPath>
</defs>
</svg>
