<svg width="165" height="264" viewBox="0 0 165 264" fill="none" xmlns="http://www.w3.org/2000/svg">
<path d="M105.931 123.908C100.645 117.075 93.7205 113.66 85.1583 113.66H79.1462C70.5793 113.66 63.6551 117.075 58.3736 123.908C53.0873 130.741 50.4465 139.17 50.4465 149.193V160.673H113.863V149.193C113.863 139.175 111.217 130.741 105.936 123.908H105.931Z" fill="#00345C"/>
<path d="M29.1247 149.194C29.1247 139.176 31.264 130.017 35.5475 121.722C39.8309 113.432 45.8001 106.828 53.4501 101.904C61.105 96.9857 69.6671 94.5264 79.1461 94.5264H82.1498C68.903 94.5264 56.9313 89.0874 48.3644 80.3008C19.8558 93.1655 0 121.865 0 155.187V176.38C0 179.398 2.44974 181.819 5.43909 181.819H29.1199V149.194H29.1247Z" fill="#00345C"/>
<path d="M115.935 80.3008C107.368 89.0874 95.3966 94.5264 82.1499 94.5264H85.1536C94.6278 94.5264 103.195 96.9857 110.85 101.904C118.504 106.823 124.469 113.432 128.752 121.722C133.036 130.017 135.175 139.171 135.175 149.194V181.819H158.856C161.85 181.819 164.295 179.398 164.295 176.38V155.187C164.295 121.865 144.439 93.1655 115.93 80.3008H115.935Z" fill="#00345C"/>
<path d="M115.935 80.3017C124.287 71.7873 129.425 60.1451 129.425 47.2804C129.43 21.1642 108.266 0 82.1497 0C56.0335 0 34.874 21.1642 34.874 47.2756C34.874 60.1403 40.017 71.7826 48.3643 80.297C58.6742 75.6171 70.0968 73.0337 82.1497 73.0337C94.2026 73.0337 105.625 75.6171 115.935 80.297V80.3017Z" fill="#00BDFF"/>
<path d="M82.1496 94.528C95.3964 94.528 107.368 89.0889 115.935 80.3023C105.625 75.6225 94.2025 73.0391 82.1496 73.0391C70.0967 73.0391 58.6742 75.6225 48.3643 80.3023C56.9312 89.0889 68.9029 94.528 82.1496 94.528Z" fill="#1E75FF"/>
<path d="M29.1245 209.331C29.1245 219.354 31.2639 228.513 35.5473 236.803C39.8308 245.098 45.7999 251.702 53.45 256.621C61.1048 261.539 69.667 263.999 79.146 263.999H85.1581C94.6323 263.999 103.199 261.539 110.854 256.621C118.509 251.702 124.473 245.098 128.757 236.803C133.04 228.513 135.18 219.359 135.18 209.331H113.858C113.858 219.354 111.212 227.783 105.931 234.616C100.644 241.45 93.7202 244.864 85.1581 244.864H79.146C70.579 244.864 63.6548 241.45 58.3733 234.616C53.0871 227.783 50.4463 219.354 50.4463 209.331V181.82H29.1245V209.331Z" fill="#1E75FF"/>
<path d="M53.4502 101.913C45.8002 106.832 39.8262 113.441 35.5476 121.731C31.2641 130.025 29.1248 139.18 29.1248 149.203V160.683H50.4465V149.203C50.4465 139.184 53.0873 130.751 58.3736 123.918C63.6551 117.084 70.5793 113.67 79.1462 113.67H85.1583C93.7205 113.67 100.645 117.084 105.931 123.918C111.212 130.751 113.858 139.18 113.858 149.203V160.683H135.18V149.203C135.18 139.184 133.036 130.025 128.757 121.731C124.474 113.441 118.509 106.836 110.854 101.913C103.199 96.9944 94.6326 94.5352 85.1583 94.5352H79.1462C69.6672 94.5352 61.1051 96.9944 53.4502 101.913Z" fill="#0A5EC9"/>
<path d="M135.18 160.676H113.858V181.821H135.18V160.676Z" fill="#00BDFF"/>
<path d="M50.4463 160.676H29.1245V181.821H50.4463V160.676Z" fill="#00BDFF"/>
<path d="M113.858 160.676H50.4419V181.821H113.858V160.676Z" fill="#1E75FF"/>
</svg>
