<svg width="468" height="398" viewBox="0 0 468 398" fill="none" xmlns="http://www.w3.org/2000/svg">
<g clip-path="url(#clip0_187_2469)">
<path d="M360.699 113.683C351.651 101.293 339.129 91.4644 324.883 85.0938V129.903C334.809 121.395 347.132 115.606 360.699 113.683Z" fill="white" stroke="black" stroke-width="2.04024" stroke-miterlimit="10"/>
<path d="M265.099 334.51C237.683 364.833 202.474 387.301 162.954 396.946H466.889C455.387 356.514 398.423 335.459 375.552 313.98C352.651 292.471 348.371 281.27 354.436 251.926C340.634 248.667 328.402 241.342 319.068 231.289C310.081 269.947 291.097 305.753 265.099 334.505" fill="white"/>
<path d="M265.099 334.51C237.683 364.833 202.474 387.301 162.954 396.946H466.889C455.387 356.514 398.423 335.459 375.552 313.98C352.651 292.471 348.371 281.27 354.436 251.926C340.634 248.667 328.402 241.342 319.068 231.289C310.081 269.947 291.097 305.753 265.099 334.505" stroke="black" stroke-width="2.04024" stroke-linecap="square" stroke-linejoin="bevel"/>
<path d="M372.915 180.545C364.479 213.368 357.833 235.499 354.436 251.933C359.654 253.168 365.091 253.821 370.686 253.821C409.578 253.821 441.11 222.289 441.11 183.397C441.11 144.505 409.583 112.973 370.686 112.973C367.294 112.973 363.964 113.217 360.704 113.682C373.736 131.534 379.561 154.706 372.92 180.545H372.915Z" fill="#30C9E2" stroke="#30C9E2" stroke-width="2.04024" stroke-miterlimit="10"/>
<path d="M324.888 162.751C332.279 163.43 336.976 169.622 337.374 178.451C336.971 169.622 332.274 163.43 324.888 162.751V181.042C324.888 198.088 322.873 214.946 319.068 231.298C328.402 241.352 340.633 248.671 354.436 251.935C357.833 235.496 364.479 213.37 372.915 180.547C379.556 154.708 373.731 131.536 360.699 113.684C347.132 115.612 334.809 121.401 324.883 129.904V162.746L324.888 162.751Z" fill="white"/>
<path d="M324.888 162.751C332.279 163.43 336.976 169.622 337.374 178.451C336.971 169.622 332.274 163.43 324.888 162.751ZM324.888 162.751V181.042C324.888 198.088 322.873 214.946 319.068 231.298C328.402 241.352 340.633 248.671 354.436 251.935C357.833 235.496 364.479 213.37 372.915 180.547C379.556 154.708 373.731 131.536 360.699 113.684C347.132 115.612 334.809 121.401 324.883 129.904V162.746L324.888 162.751Z" stroke="black" stroke-width="2.04024" stroke-linecap="square" stroke-linejoin="bevel"/>
<path d="M300.966 173.44C289.373 181.152 278.044 184.799 251.2 155.394C235.413 138.098 225.855 121.159 220.086 107.469C219.836 107.749 219.581 108.03 219.336 108.315C212.558 116.109 205.687 132.11 199.673 149.37L229.089 153.527C241.299 153.527 251.2 163.427 251.2 175.638C251.2 187.849 241.299 197.749 229.089 197.749L183.556 204.186C181.964 210.491 181.066 214.372 181.066 214.372H201.341C194.42 289.917 228.512 286.051 261.442 269.188C260.896 267.811 260.416 266.806 260.044 266.251C260.416 266.812 260.896 267.811 261.442 269.188C274.509 262.496 287.394 253.764 297.462 247.128C287.394 253.764 274.509 262.502 261.442 269.188C265.456 279.354 272.898 309.978 265.089 334.507C291.081 305.76 310.071 269.948 319.058 231.291C307.388 218.723 300.252 201.891 300.252 183.391C300.252 180.01 300.497 176.689 300.956 173.435L300.966 173.44Z" fill="#30C9E2"/>
<path d="M261.442 269.188C228.512 286.051 194.42 289.917 201.341 214.372H181.066C181.066 214.372 181.964 210.491 183.556 204.186L229.089 197.749C241.299 197.749 251.2 187.849 251.2 175.638C251.2 163.427 241.299 153.527 229.089 153.527L199.673 149.37C205.687 132.11 212.558 116.109 219.336 108.315C219.581 108.03 219.836 107.749 220.086 107.469C225.855 121.159 235.413 138.098 251.2 155.394C278.044 184.799 289.373 181.152 300.966 173.44L300.956 173.435C300.497 176.689 300.252 180.01 300.252 183.391C300.252 201.891 307.388 218.723 319.058 231.291C310.071 269.948 291.081 305.76 265.089 334.507C272.898 309.978 265.456 279.354 261.442 269.188ZM261.442 269.188C260.896 267.811 260.416 266.806 260.044 266.25C260.416 266.812 260.896 267.811 261.442 269.188ZM261.442 269.188C274.509 262.496 287.394 253.764 297.462 247.128C287.394 253.764 274.509 262.502 261.442 269.188Z" stroke="#30C9E2" stroke-width="2.04024" stroke-miterlimit="10"/>
<path d="M265.099 334.513C272.908 309.984 265.461 279.36 261.452 269.195C228.522 286.057 194.43 289.918 201.351 214.378H181.076C181.076 214.378 181.974 210.497 183.565 204.193L48.6545 223.264C22.3558 223.264 1.03532 201.943 1.03532 175.645C1.03532 149.346 22.3558 128.025 48.6545 128.025L199.678 149.376C205.692 132.116 212.568 116.12 219.341 108.322C219.591 108.036 219.841 107.755 220.091 107.475C212.45 89.3321 211.456 76.8866 211.456 76.8866C211.456 76.8866 212.445 89.3321 220.091 107.475C249.72 74.1323 291.913 70.3528 324.888 85.0986V73.0867L162.954 1.11719L1.02002 73.0867V181.041C1.02002 280.901 70.1128 374.282 162.954 396.949C202.473 387.299 237.683 364.831 265.099 334.513Z" fill="#2B388F"/>
<path d="M220.091 107.475C219.841 107.755 219.591 108.036 219.341 108.322C212.568 116.12 205.692 132.116 199.678 149.376L48.6545 128.025C22.3558 128.025 1.03532 149.346 1.03532 175.644C1.03532 201.943 22.3558 223.264 48.6545 223.264L183.565 204.193C181.974 210.497 181.076 214.378 181.076 214.378H201.351C194.43 289.918 228.522 286.057 261.452 269.195C265.461 279.36 272.908 309.984 265.099 334.513C237.683 364.831 202.473 387.299 162.954 396.949C70.1128 374.282 1.02002 280.901 1.02002 181.041V73.0867L162.954 1.11719L324.888 73.0867V85.0986C291.912 70.3528 249.72 74.1323 220.091 107.475ZM220.091 107.475C212.45 89.3321 211.456 76.8866 211.456 76.8866C211.456 76.8866 212.445 89.3321 220.091 107.475Z" stroke="#2B388F" stroke-width="2.04024" stroke-miterlimit="10"/>
<path d="M220.091 107.475C225.86 121.17 235.413 138.109 251.204 155.4C278.044 184.8 289.377 181.153 300.971 173.446C303.424 156.099 312.197 140.787 324.893 129.907V85.0985C291.917 70.3527 249.725 74.1322 220.096 107.475H220.091Z" fill="#1E75FF" stroke="#1E75FF" stroke-width="2.04024" stroke-miterlimit="10"/>
<path d="M48.6446 128.029C22.3459 128.029 1.02539 149.349 1.02539 175.648C1.02539 201.946 22.3459 223.267 48.6446 223.267L183.556 204.196C186.708 191.699 192.599 169.67 199.668 149.375L48.6446 128.023V128.029Z" fill="#1E75FF" stroke="#1E75FF" stroke-width="2.04024" stroke-miterlimit="10"/>
<path d="M251.2 175.643C251.2 163.432 241.299 153.532 229.089 153.532L199.673 149.375C192.599 169.665 186.713 191.7 183.561 204.196L229.094 197.759C241.304 197.759 251.205 187.859 251.205 175.648L251.2 175.643ZM236.53 173.715C234.72 168.38 230.231 166.074 227.079 167.941C230.231 166.074 234.72 168.385 236.53 173.715ZM226.268 176.73C226.482 172.802 229.078 169.752 232.057 169.92C235.036 170.089 237.28 173.399 237.061 177.326C236.847 181.254 234.25 184.304 231.272 184.136C228.293 183.972 226.049 180.657 226.268 176.73Z" fill="#1E75FF" stroke="#1E75FF" stroke-width="2.04024" stroke-miterlimit="10"/>
<path d="M237.06 177.322C237.275 173.395 235.036 170.08 232.057 169.916C229.078 169.753 226.482 172.803 226.268 176.726C226.053 180.653 228.293 183.969 231.271 184.132C234.25 184.295 236.846 181.245 237.06 177.322Z" fill="white" stroke="black" stroke-width="2.04024" stroke-miterlimit="10"/>
<path d="M324.888 162.749V129.906C312.198 140.781 303.425 156.098 300.966 173.445C305.23 170.609 309.525 167.227 314.641 164.733C318.124 163.035 321.935 162.479 324.883 162.749H324.888Z" fill="#1E75FF" stroke="#1E75FF" stroke-width="2.04024" stroke-miterlimit="10"/>
<path d="M324.888 162.749C321.935 162.478 318.125 163.034 314.646 164.733C309.53 167.227 305.23 170.609 300.971 173.445C300.512 176.699 300.267 180.019 300.267 183.401C300.267 201.901 307.403 218.733 319.073 231.301C322.873 214.948 324.893 198.091 324.893 181.044V162.754L324.888 162.749Z" fill="white" stroke="black" stroke-width="2.04024" stroke-linecap="square" stroke-linejoin="bevel"/>
</g>
<defs>
<clipPath id="clip0_187_2469">
<rect width="467.873" height="398" fill="white"/>
</clipPath>
</defs>
</svg>
